<svg width="262" height="222" viewBox="0 0 262 222" fill="none" xmlns="http://www.w3.org/2000/svg">
<path d="M187.039 18.8597C202.798 21.9763 215.28 36.7799 229.478 53.2976C243.832 69.8153 259.747 87.8912 261.775 107.214C263.804 126.692 251.79 147.106 238.371 164.714C224.797 182.478 209.507 197.126 191.72 205.073C173.933 213.021 153.649 213.955 131.182 217.54C108.714 220.968 84.3741 227.045 75.3246 214.111C66.2751 201.178 72.5162 169.233 61.2823 148.196C49.8924 127.004 20.8717 116.563 8.07759 98.7991C-4.71651 81.0348 -1.12792 55.7908 10.574 35.5333C22.4319 15.1199 42.5592 -0.307016 64.4028 0.00463902C86.2464 0.316294 109.65 16.5223 131.026 20.418C152.245 24.1579 171.28 15.7432 187.039 18.8597Z" fill="#9807B4"/>
</svg>
