<svg width="25" height="16" viewBox="0 0 25 16" fill="none" xmlns="http://www.w3.org/2000/svg">
<path d="M13.4405 15.36L11.8405 13.77C11.2805 14.2233 10.6539 14.5767 9.96055 14.83C9.26721 15.0833 8.53388 15.21 7.76055 15.21C6.80721 15.21 5.91388 15.0233 5.08055 14.65C4.24721 14.27 3.51388 13.75 2.88055 13.09C2.24721 12.4233 1.75055 11.65 1.39055 10.77C1.03721 9.89 0.860547 8.95 0.860547 7.95C0.860547 6.95 1.03721 6.01333 1.39055 5.14C1.75055 4.26 2.24721 3.48667 2.88055 2.82C3.51388 2.15333 4.24721 1.63333 5.08055 1.26C5.91388 0.879999 6.80721 0.689999 7.76055 0.689999C8.71388 0.689999 9.60388 0.879999 10.4305 1.26C11.2639 1.63333 11.9972 2.15333 12.6305 2.82C13.2639 3.48667 13.7572 4.26 14.1105 5.14C14.4705 6.01333 14.6505 6.95 14.6505 7.95C14.6505 8.76333 14.5272 9.53667 14.2805 10.27C14.0405 10.9967 13.7072 11.6633 13.2805 12.27L14.9105 13.89L13.4405 15.36ZM7.76055 13.13C8.22721 13.13 8.68055 13.0533 9.12055 12.9C9.56721 12.7467 9.97055 12.53 10.3305 12.25L8.78055 10.71L10.2505 9.23L11.7305 10.72C12.0105 10.32 12.2205 9.88333 12.3605 9.41C12.5005 8.93667 12.5705 8.45 12.5705 7.95C12.5705 7.23667 12.4439 6.57 12.1905 5.95C11.9439 5.32333 11.5972 4.77333 11.1505 4.3C10.7105 3.82 10.2005 3.44667 9.62055 3.18C9.04055 2.90667 8.42055 2.77 7.76055 2.77C7.09388 2.77 6.47055 2.90667 5.89055 3.18C5.31055 3.45333 4.79721 3.83 4.35055 4.31C3.91055 4.78333 3.56388 5.33333 3.31055 5.96C3.06388 6.58 2.94055 7.24333 2.94055 7.95C2.94055 8.66333 3.06388 9.33333 3.31055 9.96C3.56388 10.5867 3.91388 11.14 4.36055 11.62C4.80721 12.0933 5.32055 12.4633 5.90055 12.73C6.48055 12.9967 7.10055 13.13 7.76055 13.13ZM16.827 15V0.999999H18.907V12.92H24.937V15H16.827Z" fill="#D6A72F"/>
</svg>
