<svg width="175" height="175" viewBox="0 0 175 175" fill="none" xmlns="http://www.w3.org/2000/svg">
<path d="M145.218 77.3866C145.218 77.3866 146.85 71.8583 152.388 60.1619C159.968 44.1651 149.071 26.1641 127.48 16.7778C102.168 5.78235 69.6097 9.88035 46.1274 16.599C26.7149 22.1602 18.693 36.6796 15.2019 51.1519C13.4282 58.4869 13.0941 65.9866 11.9744 73.4204C10.4876 83.3289 7.24122 93.3928 4.39944 103.099C0.969553 114.824 -2.43681 128.063 2.40926 140.738C17.338 179.723 99.373 181.408 131.654 163.364C149.904 153.169 156.627 138.174 150.473 120.677C145.905 107.715 141.473 90.024 145.218 77.3866Z" fill="#D6A72F"/>
<path opacity="0.7" d="M145.218 77.3866C145.218 77.3866 146.85 71.8583 152.388 60.1619C159.968 44.1651 149.071 26.1641 127.48 16.7778C102.168 5.78235 69.6097 9.88035 46.1274 16.599C26.7149 22.1602 18.693 36.6796 15.2019 51.1519C13.4282 58.4869 13.0941 65.9866 11.9744 73.4204C10.4876 83.3289 7.24122 93.3928 4.39944 103.099C0.969553 114.824 -2.43681 128.063 2.40926 140.738C17.338 179.723 99.373 181.408 131.654 163.364C149.904 153.169 156.627 138.174 150.473 120.677C145.905 107.715 141.473 90.024 145.218 77.3866Z" fill="white"/>
<path opacity="0.3" d="M125.09 43.29C125.163 43.3007 125.237 43.2941 125.307 43.2708C125.377 43.2475 125.44 43.2082 125.492 43.156C125.544 43.1038 125.583 43.0401 125.606 42.9702C125.628 42.9002 125.634 42.8259 125.623 42.7531C125.612 42.6804 125.584 42.6113 125.541 42.5514C125.499 42.4914 125.442 42.4424 125.377 42.4081C125.312 42.3738 125.24 42.3553 125.166 42.3541C125.093 42.3528 125.02 42.3688 124.954 42.4008L123.171 42.6784L123.119 42.3396L124.902 42.062C124.993 42.0182 125.067 41.9465 125.114 41.8574C125.161 41.7683 125.178 41.6665 125.162 41.567C125.147 41.4674 125.1 41.3754 125.029 41.3045C124.957 41.2335 124.865 41.1874 124.766 41.1728L122.978 41.4551L122.597 38.9944L117.242 34.1578L47.106 163.073L52.4791 166.705L140.339 153.014L139.36 146.709L141.143 146.431C141.217 146.443 141.292 146.438 141.362 146.415C141.433 146.392 141.497 146.353 141.55 146.301C141.603 146.249 141.642 146.185 141.666 146.114C141.689 146.044 141.695 145.969 141.684 145.895C141.672 145.822 141.644 145.752 141.601 145.692C141.557 145.632 141.5 145.583 141.434 145.549C141.368 145.515 141.295 145.497 141.221 145.496C141.146 145.496 141.073 145.513 141.007 145.547L139.219 145.824L139.167 145.481L140.955 145.203C141.013 145.195 141.069 145.175 141.119 145.144C141.169 145.114 141.213 145.074 141.247 145.027C141.282 144.98 141.307 144.926 141.32 144.869C141.334 144.812 141.336 144.753 141.327 144.695C141.304 144.58 141.239 144.477 141.144 144.407C141.049 144.338 140.931 144.306 140.814 144.319L139.031 144.596L138.513 141.279L140.301 141.002C140.388 140.958 140.459 140.888 140.504 140.801C140.549 140.715 140.567 140.617 140.554 140.52C140.541 140.424 140.498 140.334 140.432 140.262C140.366 140.191 140.279 140.142 140.184 140.122L138.4 140.4L138.349 140.061L140.132 139.783C140.222 139.74 140.297 139.668 140.344 139.579C140.39 139.49 140.408 139.388 140.392 139.288C140.377 139.189 140.33 139.097 140.259 139.026C140.187 138.955 140.095 138.909 139.995 138.894L138.207 139.172L137.695 135.878L139.478 135.596C139.536 135.588 139.592 135.568 139.642 135.538C139.693 135.508 139.737 135.468 139.772 135.421C139.806 135.373 139.831 135.319 139.844 135.262C139.858 135.205 139.86 135.146 139.85 135.088C139.827 134.973 139.762 134.871 139.668 134.801C139.574 134.732 139.458 134.7 139.341 134.711L137.554 134.989L137.502 134.65L139.285 134.373C139.376 134.329 139.45 134.257 139.497 134.168C139.544 134.079 139.561 133.977 139.545 133.878C139.53 133.778 139.483 133.686 139.412 133.615C139.34 133.544 139.248 133.498 139.148 133.483L137.365 133.761L136.848 130.468L138.631 130.19C138.722 130.146 138.796 130.074 138.843 129.985C138.89 129.896 138.907 129.794 138.891 129.695C138.876 129.595 138.829 129.503 138.758 129.432C138.686 129.361 138.594 129.315 138.494 129.301L136.711 129.578L136.655 129.24L138.443 128.962C138.557 128.938 138.659 128.872 138.728 128.777C138.797 128.683 138.827 128.566 138.814 128.449C138.806 128.391 138.787 128.335 138.757 128.284C138.727 128.234 138.687 128.19 138.639 128.155C138.592 128.121 138.538 128.096 138.481 128.083C138.424 128.069 138.364 128.067 138.306 128.077L136.518 128.355L136.006 125.062L137.789 124.784C137.903 124.76 138.005 124.694 138.074 124.6C138.143 124.505 138.173 124.388 138.16 124.271C138.152 124.213 138.133 124.157 138.103 124.106C138.073 124.056 138.033 124.012 137.985 123.977C137.938 123.943 137.884 123.918 137.827 123.905C137.77 123.891 137.71 123.889 137.652 123.899L135.864 124.177L135.813 123.834L137.596 123.556C137.669 123.568 137.744 123.562 137.815 123.54C137.886 123.517 137.95 123.478 138.003 123.426C138.055 123.373 138.095 123.309 138.118 123.239C138.141 123.168 138.148 123.093 138.136 123.02C138.125 122.947 138.096 122.877 138.053 122.817C138.01 122.756 137.953 122.707 137.887 122.673C137.821 122.639 137.747 122.621 137.673 122.621C137.599 122.621 137.526 122.638 137.459 122.672L135.676 122.949L135.159 119.632L136.942 119.355C137.015 119.366 137.09 119.361 137.161 119.338C137.232 119.315 137.296 119.276 137.349 119.224C137.401 119.172 137.441 119.108 137.464 119.037C137.487 118.967 137.494 118.892 137.482 118.818C137.471 118.745 137.442 118.675 137.399 118.615C137.356 118.555 137.299 118.506 137.233 118.472C137.167 118.438 137.093 118.42 137.019 118.42C136.945 118.419 136.872 118.437 136.805 118.47L135.022 118.748L134.966 118.404L136.754 118.127C136.827 118.138 136.902 118.132 136.972 118.109C137.043 118.085 137.107 118.046 137.159 117.993C137.211 117.941 137.25 117.877 137.273 117.806C137.296 117.736 137.302 117.661 137.29 117.587C137.278 117.514 137.25 117.445 137.206 117.385C137.162 117.325 137.105 117.276 137.039 117.242C136.973 117.209 136.9 117.191 136.826 117.191C136.752 117.191 136.679 117.208 136.613 117.242L134.829 117.52L134.312 114.203L136.1 113.925C136.173 113.936 136.248 113.93 136.318 113.907C136.389 113.884 136.453 113.844 136.505 113.792C136.557 113.739 136.596 113.675 136.619 113.605C136.642 113.534 136.648 113.459 136.636 113.386C136.624 113.313 136.596 113.243 136.552 113.183C136.508 113.123 136.451 113.075 136.385 113.041C136.319 113.007 136.246 112.99 136.172 112.99C136.098 112.99 136.025 113.007 135.959 113.041L134.175 113.318L134.124 112.975L135.907 112.697C136.021 112.674 136.123 112.61 136.193 112.516C136.263 112.422 136.295 112.305 136.283 112.189C136.26 112.073 136.195 111.971 136.1 111.901C136.005 111.831 135.887 111.8 135.77 111.813L133.982 112.09L133.47 108.797L135.253 108.519C135.367 108.496 135.469 108.432 135.539 108.338C135.609 108.244 135.641 108.127 135.629 108.011C135.606 107.895 135.541 107.793 135.446 107.723C135.351 107.653 135.233 107.622 135.116 107.635L133.333 107.912L133.277 107.573L135.065 107.296C135.155 107.252 135.23 107.18 135.276 107.09C135.323 107.001 135.339 106.899 135.324 106.799C135.308 106.699 135.26 106.607 135.188 106.537C135.116 106.466 135.023 106.42 134.923 106.407L133.14 106.684L132.623 103.391L134.411 103.113C134.501 103.069 134.576 102.997 134.622 102.907C134.669 102.818 134.685 102.716 134.67 102.616C134.654 102.517 134.606 102.425 134.534 102.354C134.462 102.283 134.369 102.238 134.269 102.224L132.486 102.501L132.435 102.163L134.218 101.885C134.308 101.841 134.383 101.77 134.43 101.681C134.476 101.591 134.493 101.49 134.478 101.39C134.463 101.291 134.416 101.199 134.345 101.128C134.273 101.057 134.181 101.01 134.081 100.996L132.293 101.278L131.781 97.9848L133.564 97.7072C133.654 97.6634 133.729 97.5917 133.776 97.5026C133.822 97.4135 133.839 97.3116 133.824 97.2121C133.809 97.1126 133.762 97.0206 133.691 96.9496C133.619 96.8787 133.527 96.8325 133.427 96.8179L131.639 97.0955L131.588 96.7568L133.371 96.4792C133.444 96.4911 133.519 96.4855 133.59 96.4628C133.661 96.4401 133.725 96.4011 133.778 96.3488C133.83 96.2965 133.87 96.2324 133.893 96.1619C133.916 96.0914 133.923 96.0164 133.911 95.943C133.9 95.8697 133.871 95.8 133.828 95.7398C133.785 95.6795 133.728 95.6304 133.662 95.5964C133.596 95.5625 133.522 95.5446 133.448 95.5443C133.374 95.544 133.301 95.5612 133.234 95.5947L131.451 95.8723L130.934 92.5553L132.717 92.2777C132.79 92.2896 132.865 92.284 132.936 92.2613C133.007 92.2386 133.071 92.1996 133.124 92.1473C133.176 92.095 133.216 92.031 133.239 91.9604C133.262 91.8899 133.269 91.8149 133.257 91.7415C133.246 91.6682 133.217 91.5985 133.174 91.5383C133.131 91.478 133.074 91.4289 133.008 91.395C132.942 91.361 132.868 91.3431 132.794 91.3428C132.72 91.3425 132.647 91.3597 132.58 91.3932L130.797 91.6707L130.745 91.3273L132.529 91.0497C132.617 91.005 132.69 90.9333 132.735 90.8449C132.781 90.7566 132.797 90.6561 132.782 90.5579C132.767 90.4597 132.721 90.3688 132.651 90.2982C132.581 90.2277 132.49 90.1811 132.392 90.1652L130.604 90.4428L130.091 87.1493L131.875 86.8717C131.963 86.827 132.036 86.7553 132.081 86.6669C132.127 86.5786 132.143 86.4781 132.128 86.3799C132.113 86.2817 132.067 86.1908 131.997 86.1202C131.927 86.0497 131.836 86.0031 131.738 85.9872L129.95 86.2648L129.899 85.9213L131.682 85.6437C131.796 85.6209 131.898 85.5563 131.968 85.4623C132.038 85.3684 132.07 85.2519 132.058 85.1356C132.035 85.0201 131.97 84.9173 131.875 84.8476C131.78 84.7779 131.662 84.7464 131.545 84.7592L129.762 85.0368L129.245 81.7198L131.028 81.4422C131.101 81.4541 131.176 81.4485 131.247 81.4259C131.318 81.4032 131.382 81.3641 131.435 81.3118C131.487 81.2595 131.527 81.1955 131.55 81.125C131.573 81.0545 131.579 80.9795 131.568 80.9061C131.557 80.8327 131.528 80.7631 131.485 80.7028C131.442 80.6426 131.384 80.5935 131.318 80.5595C131.252 80.5255 131.179 80.5077 131.105 80.5073C131.031 80.507 130.958 80.5243 130.891 80.5577L129.108 80.8353L129.052 80.4966L130.84 80.219C130.93 80.1749 131.005 80.1027 131.051 80.0133C131.098 79.9238 131.114 79.8217 131.099 79.722C131.083 79.6224 131.035 79.5304 130.963 79.4598C130.891 79.3892 130.798 79.3436 130.698 79.3297L128.915 79.6073L128.398 76.3139L130.186 76.0316C130.274 75.9868 130.347 75.9152 130.392 75.8268C130.438 75.7384 130.454 75.638 130.439 75.5397C130.424 75.4415 130.378 75.3506 130.308 75.2801C130.238 75.2095 130.147 75.163 130.049 75.1471L128.261 75.4246L128.21 75.0859L129.993 74.8083C130.083 74.7645 130.158 74.6928 130.204 74.6037C130.251 74.5146 130.268 74.4128 130.253 74.3132C130.238 74.2137 130.191 74.1217 130.12 74.0508C130.048 73.9798 129.956 73.9336 129.856 73.9191L128.073 74.1967L127.556 70.9032L129.339 70.6256C129.412 70.6363 129.486 70.6297 129.556 70.6064C129.625 70.5832 129.689 70.5438 129.741 70.4916C129.793 70.4394 129.831 70.3758 129.854 70.3058C129.877 70.2358 129.883 70.1615 129.872 70.0887C129.861 70.016 129.833 69.9469 129.79 69.887C129.747 69.8271 129.691 69.778 129.626 69.7437C129.561 69.7095 129.489 69.6909 129.415 69.6897C129.341 69.6884 129.269 69.7044 129.202 69.7364L127.419 70.014L127.363 69.6752L129.151 69.3976C129.224 69.4089 129.299 69.4028 129.369 69.3797C129.44 69.3565 129.504 69.3171 129.556 69.2645C129.608 69.2119 129.647 69.1478 129.67 69.0772C129.693 69.0067 129.699 68.9317 129.687 68.8585C129.675 68.7853 129.646 68.7159 129.603 68.6559C129.559 68.596 129.502 68.5472 129.436 68.5135C129.37 68.4798 129.297 68.4622 129.223 68.4622C129.149 68.4621 129.075 68.4796 129.009 68.5131L127.226 68.7907L126.709 65.4973L128.497 65.2197C128.585 65.1746 128.658 65.1025 128.703 65.0138C128.748 64.9251 128.764 64.8243 128.748 64.726C128.733 64.6276 128.686 64.5368 128.615 64.4666C128.545 64.3964 128.454 64.3503 128.355 64.3351L126.572 64.6127L126.52 64.2693L128.304 63.9917C128.377 64.0036 128.452 63.998 128.523 63.9753C128.593 63.9526 128.658 63.9135 128.71 63.8613C128.763 63.809 128.803 63.7449 128.826 63.6744C128.849 63.6039 128.855 63.5289 128.844 63.4555C128.833 63.3822 128.804 63.3125 128.761 63.2523C128.717 63.192 128.66 63.1429 128.594 63.1089C128.528 63.075 128.455 63.0571 128.381 63.0568C128.307 63.0565 128.233 63.0737 128.167 63.1072L126.379 63.3847L125.866 60.0678L127.65 59.7902C127.723 59.8021 127.798 59.7965 127.869 59.7738C127.939 59.7511 128.004 59.7121 128.056 59.6598C128.109 59.6075 128.149 59.5435 128.172 59.4729C128.195 59.4024 128.201 59.3274 128.19 59.254C128.179 59.1807 128.15 59.111 128.107 59.0508C128.063 58.9905 128.006 58.9414 127.94 58.9074C127.874 58.8735 127.801 58.8556 127.727 58.8553C127.653 58.855 127.579 58.8722 127.513 58.9057L125.725 59.1832L125.674 58.8398L127.461 58.5622C127.55 58.5171 127.622 58.445 127.668 58.3563C127.713 58.2676 127.729 58.1668 127.713 58.0685C127.697 57.9702 127.651 57.8794 127.58 57.8091C127.51 57.7389 127.419 57.6929 127.32 57.6777L125.537 57.9553L125.02 54.6383L126.807 54.3607C126.896 54.3156 126.968 54.2436 127.014 54.1548C127.059 54.0661 127.075 53.9653 127.059 53.867C127.043 53.7687 126.997 53.6779 126.926 53.6076C126.856 53.5374 126.765 53.4914 126.666 53.4762L124.883 53.7538L124.831 53.4103L126.615 53.1327C126.729 53.1099 126.831 53.0452 126.901 52.9513C126.97 52.8574 127.003 52.7409 126.991 52.6246C126.968 52.509 126.903 52.4063 126.808 52.3366C126.713 52.2669 126.595 52.2353 126.478 52.2482L124.69 52.5258L124.177 49.2088L125.961 48.9312C126.075 48.9084 126.177 48.8437 126.247 48.7498C126.316 48.6559 126.349 48.5394 126.337 48.4231C126.314 48.3075 126.249 48.2048 126.154 48.1351C126.059 48.0654 125.941 48.0339 125.824 48.0467L124.036 48.3243L123.985 47.9855L125.768 47.7079C125.858 47.6642 125.933 47.5924 125.979 47.5033C126.026 47.4142 126.043 47.3124 126.028 47.2129C126.013 47.1134 125.966 47.0213 125.895 46.9504C125.823 46.8794 125.731 46.8333 125.631 46.8187L123.848 47.0963L123.331 43.8028L125.09 43.29Z" fill="black"/>
<path d="M49.9431 164.301L131.409 151.626L113.229 34.7788L31.7586 47.4821C31.2646 47.5589 30.7905 47.7324 30.3635 47.9924C29.9366 48.2525 29.565 48.5942 29.2701 48.9979C28.9752 49.4016 28.7627 49.8594 28.6447 50.3453C28.5268 50.8311 28.5057 51.3355 28.5827 51.8294L45.6146 161.125C45.7688 162.119 46.311 163.012 47.1224 163.607C47.9338 164.203 48.9482 164.452 49.9431 164.301Z" fill="#263238" stroke="#263238" stroke-miterlimit="10" stroke-linecap="round"/>
<path d="M51.456 160.216L46.8071 160.94C46.4803 160.991 46.1467 160.91 45.8797 160.715C45.6127 160.52 45.4341 160.227 45.3833 159.9L43.7474 149.393C43.6965 149.067 43.7775 148.733 43.9726 148.466C44.1676 148.199 44.4608 148.021 44.7875 147.97L49.4364 147.246L51.456 160.216Z" fill="white" stroke="#263238" stroke-miterlimit="10" stroke-linecap="round"/>
<path d="M49.337 146.582L44.6881 147.306C44.3614 147.357 44.0278 147.276 43.7608 147.081C43.4938 146.886 43.3152 146.592 43.2643 146.266L41.6285 135.759C41.5776 135.432 41.6586 135.099 41.8537 134.832C42.0487 134.565 42.3419 134.386 42.6686 134.335L47.3175 133.611L49.337 146.582Z" fill="#D6A72F" stroke="#263238" stroke-miterlimit="10" stroke-linecap="round"/>
<path d="M47.2098 132.924L42.5609 133.648C42.2341 133.699 41.9006 133.618 41.6336 133.423C41.3666 133.228 41.188 132.935 41.1371 132.608L39.5012 122.101C39.4503 121.775 39.5313 121.441 39.7264 121.174C39.9215 120.907 40.2146 120.729 40.5413 120.678L45.1903 119.954L47.2098 132.924Z" fill="white" stroke="#263238" stroke-miterlimit="10" stroke-linecap="round"/>
<path d="M45.0916 119.295L40.4427 120.018C40.1159 120.069 39.7824 119.988 39.5154 119.793C39.2483 119.598 39.0698 119.305 39.0189 118.978L37.383 108.472C37.3321 108.145 37.4131 107.811 37.6082 107.544C37.8033 107.277 38.0964 107.099 38.4231 107.048L43.0721 106.324L45.0916 119.295Z" fill="#D6A72F" stroke="#263238" stroke-miterlimit="10" stroke-linecap="round"/>
<path d="M36.3176 93.4116L39.0983 92.9787L32.0079 47.4351L117.242 34.1719L135.422 151.014L50.1925 164.263L41.1167 105.95L38.3361 106.383C38.0111 106.432 37.6801 106.35 37.4156 106.155C37.151 105.96 36.9745 105.668 36.9246 105.343L35.2637 94.8372C35.2384 94.6742 35.2456 94.5079 35.285 94.3478C35.3244 94.1877 35.3951 94.037 35.4932 93.9044C35.5912 93.7718 35.7145 93.66 35.856 93.5754C35.9976 93.4908 36.1545 93.4351 36.3176 93.4116Z" fill="white" stroke="#263238" stroke-miterlimit="10" stroke-linecap="round"/>
<path d="M45.4311 72.3147L45.7134 78.6993L77.5187 73.5097L76.6859 68.1649L45.4311 72.3147Z" fill="#D6A72F"/>
<path d="M112.504 41.3186C112.552 41.6457 112.695 41.9514 112.916 42.1969C113.137 42.4423 113.426 42.6164 113.747 42.697C114.067 42.7775 114.405 42.761 114.716 42.6494C115.027 42.5378 115.297 42.3362 115.494 42.0703C115.69 41.8043 115.802 41.4861 115.817 41.156C115.832 40.8259 115.748 40.4988 115.576 40.2165C115.405 39.9341 115.153 39.7092 114.853 39.5704C114.553 39.4315 114.219 39.385 113.892 39.4367C113.46 39.5052 113.072 39.741 112.813 40.0931C112.553 40.4453 112.442 40.8855 112.504 41.3186Z" fill="#263238" stroke="#263238" stroke-miterlimit="10" stroke-linecap="round"/>
<path d="M114.306 40.8011L119.284 40.0248C119.399 40.0009 119.501 39.9351 119.569 39.8403C119.638 39.7454 119.669 39.6284 119.656 39.512C119.632 39.3973 119.566 39.2956 119.471 39.2269C119.377 39.1582 119.26 39.1273 119.143 39.1403L114.184 39.9072C114.069 39.93 113.966 39.9954 113.896 40.0903C113.826 40.1853 113.795 40.3029 113.808 40.42C113.829 40.5338 113.892 40.6356 113.984 40.7059C114.076 40.7762 114.191 40.8101 114.306 40.8011Z" fill="white" stroke="#263238" stroke-miterlimit="10" stroke-linecap="round"/>
<path d="M114.513 42.0244L119.482 41.2528C119.597 41.2299 119.7 41.1646 119.77 41.0696C119.84 40.9747 119.871 40.857 119.858 40.7399C119.835 40.6244 119.77 40.5216 119.675 40.4519C119.58 40.3822 119.463 40.3507 119.345 40.3635L114.368 41.1399C114.253 41.1637 114.151 41.2295 114.083 41.3244C114.014 41.4192 113.983 41.5363 113.996 41.6527C114.02 41.7683 114.086 41.8706 114.182 41.9395C114.278 42.0083 114.396 42.0386 114.513 42.0244Z" fill="white" stroke="#263238" stroke-miterlimit="10" stroke-linecap="round"/>
<path d="M113.366 46.7434C113.412 47.0698 113.554 47.3751 113.773 47.6207C113.993 47.8663 114.281 48.0411 114.6 48.1231C114.919 48.2051 115.256 48.1906 115.567 48.0813C115.878 47.972 116.149 47.773 116.347 47.5093C116.545 47.2456 116.66 46.9292 116.678 46.6001C116.696 46.271 116.615 45.944 116.447 45.6605C116.279 45.377 116.031 45.1497 115.733 45.0075C115.436 44.8653 115.103 44.8144 114.777 44.8615C114.34 44.9244 113.947 45.1578 113.682 45.5106C113.418 45.8634 113.304 46.3068 113.366 46.7434Z" fill="#263238" stroke="#263238" stroke-miterlimit="10" stroke-linecap="round"/>
<path d="M115.167 46.2259L120.141 45.4543C120.256 45.4314 120.359 45.3661 120.429 45.2711C120.498 45.1762 120.53 45.0585 120.517 44.9414C120.494 44.8259 120.429 44.7231 120.334 44.6534C120.239 44.5837 120.121 44.5522 120.004 44.565L115.026 45.3414C114.912 45.3652 114.81 45.431 114.741 45.5259C114.673 45.6207 114.642 45.7378 114.655 45.8542C114.679 45.9689 114.744 46.0705 114.839 46.1393C114.934 46.208 115.051 46.2389 115.167 46.2259Z" fill="white" stroke="#263238" stroke-miterlimit="10" stroke-linecap="round"/>
<path d="M115.356 47.4351L120.333 46.6634C120.448 46.6396 120.55 46.5738 120.619 46.4789C120.687 46.3841 120.718 46.267 120.705 46.1506C120.682 46.0351 120.617 45.9323 120.522 45.8626C120.427 45.7929 120.309 45.7614 120.192 45.7742L115.219 46.5505C115.104 46.5734 115.001 46.6387 114.931 46.7337C114.862 46.8286 114.83 46.9463 114.843 47.0634C114.867 47.178 114.932 47.2797 115.027 47.3484C115.122 47.4172 115.239 47.4481 115.356 47.4351Z" fill="white" stroke="#263238" stroke-miterlimit="10" stroke-linecap="round"/>
<path d="M114.194 52.1729C114.241 52.5 114.384 52.8057 114.605 53.0511C114.826 53.2965 115.116 53.4706 115.436 53.5512C115.756 53.6318 116.094 53.6152 116.405 53.5036C116.716 53.392 116.986 53.1905 117.183 52.9245C117.379 52.6586 117.491 52.3403 117.506 52.0102C117.521 51.6801 117.437 51.3531 117.265 51.0707C117.094 50.7884 116.842 50.5635 116.542 50.4246C116.242 50.2858 115.908 50.2392 115.582 50.2909C115.149 50.3594 114.761 50.5952 114.502 50.9474C114.242 51.2995 114.131 51.7398 114.194 52.1729Z" fill="#263238" stroke="#263238" stroke-miterlimit="10" stroke-linecap="round"/>
<path d="M116.01 51.6695L120.987 50.8979C121.102 50.874 121.204 50.8082 121.273 50.7134C121.341 50.6185 121.372 50.5014 121.359 50.385C121.336 50.2695 121.271 50.1667 121.176 50.097C121.081 50.0273 120.963 49.9958 120.846 50.0086L115.873 50.785C115.758 50.8078 115.655 50.8732 115.585 50.9681C115.516 51.0631 115.484 51.1807 115.497 51.2978C115.521 51.4125 115.586 51.5141 115.681 51.5828C115.776 51.6516 115.893 51.6825 116.01 51.6695Z" fill="white" stroke="#263238" stroke-miterlimit="10" stroke-linecap="round"/>
<path d="M116.188 52.8834L121.162 52.107C121.276 52.0842 121.378 52.0196 121.448 51.9256C121.517 51.8317 121.55 51.7152 121.538 51.5989C121.515 51.4834 121.45 51.3806 121.355 51.3109C121.26 51.2412 121.142 51.2097 121.025 51.2225L116.052 51.9988C115.937 52.0216 115.835 52.0863 115.766 52.1802C115.696 52.2742 115.664 52.3906 115.676 52.507C115.698 52.6225 115.764 52.7253 115.859 52.795C115.954 52.8647 116.071 52.8962 116.188 52.8834Z" fill="white" stroke="#263238" stroke-miterlimit="10" stroke-linecap="round"/>
<path d="M115.036 57.6024C115.082 57.9287 115.224 58.234 115.444 58.4796C115.664 58.7252 115.951 58.9001 116.27 58.9821C116.59 59.0641 116.926 59.0495 117.237 58.9403C117.548 58.831 117.82 58.6319 118.017 58.3683C118.215 58.1046 118.33 57.7882 118.348 57.4591C118.366 57.1299 118.286 56.8029 118.117 56.5194C117.949 56.2359 117.701 56.0087 117.404 55.8665C117.106 55.7242 116.773 55.6734 116.447 55.7204C116.011 55.7833 115.617 56.0168 115.352 56.3696C115.088 56.7224 114.974 57.1657 115.036 57.6024Z" fill="#263238" stroke="#263238" stroke-miterlimit="10" stroke-linecap="round"/>
<path d="M116.857 57.0848L121.834 56.3085C121.949 56.2857 122.051 56.2211 122.121 56.1271C122.19 56.0332 122.222 55.9167 122.211 55.8004C122.188 55.6849 122.123 55.5821 122.028 55.5124C121.933 55.4427 121.815 55.4112 121.698 55.424L116.72 56.2003C116.662 56.2089 116.606 56.2289 116.556 56.2592C116.506 56.2895 116.463 56.3294 116.428 56.3767C116.393 56.424 116.369 56.4776 116.355 56.5346C116.341 56.5915 116.339 56.6506 116.348 56.7085C116.371 56.8231 116.436 56.9252 116.53 56.9947C116.624 57.0643 116.74 57.0964 116.857 57.0848Z" fill="white" stroke="#263238" stroke-miterlimit="10" stroke-linecap="round"/>
<path d="M117.045 58.3128L122.023 57.5365C122.081 57.528 122.137 57.5078 122.188 57.4772C122.238 57.4466 122.282 57.4063 122.317 57.3585C122.351 57.3107 122.376 57.2564 122.389 57.1989C122.403 57.1414 122.404 57.0819 122.394 57.0237C122.386 56.9658 122.366 56.9101 122.335 56.86C122.305 56.8098 122.265 56.7662 122.218 56.7316C122.171 56.697 122.117 56.6722 122.06 56.6585C122.003 56.6449 121.944 56.6426 121.886 56.652L116.908 57.4236C116.794 57.4475 116.692 57.5133 116.623 57.6081C116.554 57.703 116.524 57.82 116.537 57.9364C116.559 58.0511 116.624 58.1532 116.718 58.2227C116.812 58.2923 116.928 58.3244 117.045 58.3128Z" fill="white" stroke="#263238" stroke-miterlimit="10" stroke-linecap="round"/>
<path d="M115.883 63.0319C115.93 63.3589 116.073 63.6646 116.294 63.9101C116.515 64.1555 116.805 64.3296 117.125 64.4102C117.446 64.4908 117.783 64.4742 118.094 64.3626C118.405 64.251 118.676 64.0494 118.872 63.7835C119.068 63.5176 119.18 63.1993 119.195 62.8692C119.21 62.5391 119.126 62.2121 118.954 61.9297C118.783 61.6474 118.531 61.4225 118.231 61.2836C117.931 61.1447 117.597 61.0982 117.271 61.1499C116.838 61.2184 116.451 61.4542 116.191 61.8064C115.931 62.1585 115.82 62.5987 115.883 63.0319Z" fill="#263238" stroke="#263238" stroke-miterlimit="10" stroke-linecap="round"/>
<path d="M117.699 62.5143L122.677 61.738C122.791 61.7141 122.893 61.6484 122.962 61.5535C123.03 61.4587 123.061 61.3416 123.048 61.2252C123.04 61.1672 123.02 61.1116 122.989 61.0615C122.959 61.0113 122.919 60.9677 122.872 60.9331C122.825 60.8985 122.771 60.8737 122.714 60.86C122.657 60.8464 122.598 60.8441 122.54 60.8535L117.562 61.6251C117.448 61.649 117.346 61.7148 117.277 61.8096C117.208 61.9045 117.178 62.0215 117.191 62.1379C117.213 62.2526 117.278 62.3546 117.372 62.4242C117.466 62.4938 117.582 62.5259 117.699 62.5143Z" fill="white" stroke="#263238" stroke-miterlimit="10" stroke-linecap="round"/>
<path d="M117.892 63.7423L122.865 62.9613C122.98 62.9384 123.083 62.8731 123.153 62.7781C123.222 62.6832 123.254 62.5655 123.241 62.4485C123.217 62.3338 123.151 62.2321 123.057 62.1634C122.962 62.0947 122.845 62.0638 122.728 62.0768L117.755 62.8484C117.64 62.8712 117.537 62.9366 117.467 63.0315C117.397 63.1265 117.366 63.2441 117.379 63.3612C117.401 63.4776 117.466 63.5815 117.561 63.6522C117.656 63.7228 117.774 63.755 117.892 63.7423Z" fill="white" stroke="#263238" stroke-miterlimit="10" stroke-linecap="round"/>
<path d="M116.725 68.4614C116.775 68.7859 116.921 69.0882 117.143 69.3303C117.365 69.5725 117.653 69.7435 117.972 69.8221C118.291 69.9006 118.626 69.8831 118.935 69.7718C119.244 69.6604 119.513 69.4602 119.709 69.1962C119.904 68.9323 120.017 68.6165 120.034 68.2884C120.05 67.9604 119.97 67.6348 119.801 67.3526C119.633 67.0704 119.386 66.8442 119.089 66.7024C118.793 66.5607 118.461 66.5097 118.136 66.5559C117.918 66.5869 117.708 66.661 117.518 66.7739C117.329 66.8868 117.163 67.0362 117.032 67.2135C116.901 67.3908 116.806 67.5924 116.753 67.8066C116.701 68.0208 116.691 68.2434 116.725 68.4614Z" fill="#263238" stroke="#263238" stroke-miterlimit="10" stroke-linecap="round"/>
<path d="M118.541 67.9438L123.514 67.1675C123.63 67.1446 123.732 67.0793 123.802 66.9843C123.872 66.8894 123.903 66.7717 123.89 66.6547C123.867 66.54 123.801 66.4383 123.706 66.3696C123.611 66.3009 123.494 66.27 123.378 66.283L118.404 67.0546C118.289 67.0774 118.186 67.1428 118.116 67.2378C118.047 67.3327 118.015 67.4503 118.028 67.5674C118.051 67.683 118.116 67.7857 118.211 67.8554C118.306 67.9251 118.424 67.9567 118.541 67.9438Z" fill="white" stroke="#263238" stroke-miterlimit="10" stroke-linecap="round"/>
<path d="M118.739 69.1671L123.716 68.3955C123.832 68.3726 123.935 68.3073 124.004 68.2123C124.074 68.1174 124.106 67.9997 124.093 67.8827C124.07 67.7671 124.005 67.6643 123.91 67.5946C123.815 67.525 123.697 67.4934 123.58 67.5063L118.602 68.2826C118.487 68.3064 118.386 68.3722 118.317 68.4671C118.248 68.5619 118.217 68.679 118.23 68.7954C118.254 68.9092 118.319 69.0101 118.413 69.0788C118.507 69.1474 118.623 69.1789 118.739 69.1671Z" fill="white" stroke="#263238" stroke-miterlimit="10" stroke-linecap="round"/>
<path d="M117.572 73.8861C117.619 74.2132 117.762 74.5189 117.983 74.7643C118.204 75.0098 118.494 75.1839 118.814 75.2644C119.135 75.345 119.472 75.3285 119.783 75.2169C120.094 75.1053 120.365 74.9037 120.561 74.6378C120.757 74.3718 120.869 74.0536 120.884 73.7235C120.899 73.3934 120.815 73.0663 120.643 72.784C120.472 72.5016 120.22 72.2767 119.92 72.1378C119.62 71.999 119.286 71.9525 118.96 72.0042C118.527 72.0726 118.14 72.3085 117.88 72.6606C117.62 73.0128 117.509 73.453 117.572 73.8861Z" fill="#263238" stroke="#263238" stroke-miterlimit="10" stroke-linecap="round"/>
<path d="M119.388 73.3686L124.366 72.597C124.481 72.5741 124.584 72.5088 124.654 72.4138C124.723 72.3189 124.755 72.2012 124.742 72.0841C124.718 71.9695 124.652 71.8678 124.557 71.7991C124.463 71.7303 124.346 71.6995 124.229 71.7125L119.251 72.4841C119.137 72.5079 119.035 72.5737 118.966 72.6686C118.898 72.7634 118.867 72.8805 118.88 72.9969C118.888 73.0551 118.907 73.1111 118.937 73.1616C118.967 73.212 119.007 73.2559 119.055 73.2906C119.102 73.3253 119.156 73.3501 119.213 73.3635C119.271 73.3769 119.33 73.3786 119.388 73.3686Z" fill="white" stroke="#263238" stroke-miterlimit="10" stroke-linecap="round"/>
<path d="M119.581 74.5966L124.559 73.825C124.673 73.8011 124.775 73.7353 124.844 73.6405C124.912 73.5456 124.943 73.4285 124.93 73.3121C124.907 73.1966 124.842 73.0938 124.747 73.0241C124.652 72.9544 124.534 72.9229 124.417 72.9357L119.444 73.7121C119.329 73.7349 119.226 73.8003 119.156 73.8952C119.087 73.9902 119.055 74.1078 119.068 74.2249C119.092 74.3396 119.158 74.4412 119.252 74.51C119.347 74.5787 119.464 74.6096 119.581 74.5966Z" fill="white" stroke="#263238" stroke-miterlimit="10" stroke-linecap="round"/>
<path d="M118.419 79.3156C118.466 79.6427 118.609 79.9484 118.83 80.1938C119.051 80.4393 119.341 80.6133 119.661 80.6939C119.981 80.7745 120.319 80.758 120.63 80.6464C120.941 80.5348 121.211 80.3332 121.408 80.0672C121.604 79.8013 121.716 79.483 121.731 79.1529C121.746 78.8228 121.662 78.4958 121.49 78.2135C121.319 77.9311 121.067 77.7062 120.767 77.5673C120.467 77.4285 120.133 77.3819 119.807 77.4336C119.374 77.5021 118.986 77.7379 118.727 78.0901C118.467 78.4423 118.356 78.8825 118.419 79.3156Z" fill="#263238" stroke="#263238" stroke-miterlimit="10" stroke-linecap="round"/>
<path d="M120.235 78.7981L125.212 78.0171C125.327 77.9932 125.429 77.9274 125.498 77.8325C125.566 77.7377 125.597 77.6206 125.584 77.5042C125.561 77.3887 125.496 77.2859 125.401 77.2162C125.306 77.1465 125.188 77.115 125.071 77.1278L120.098 77.9041C119.983 77.927 119.88 77.9924 119.81 78.0873C119.741 78.1823 119.709 78.2999 119.722 78.417C119.744 78.5334 119.809 78.6373 119.904 78.7079C119.999 78.7786 120.117 78.8108 120.235 78.7981Z" fill="white" stroke="#263238" stroke-miterlimit="10" stroke-linecap="round"/>
<path d="M120.423 80.0261L125.396 79.2497C125.511 79.2269 125.613 79.1623 125.682 79.0683C125.752 78.9744 125.784 78.8579 125.772 78.7416C125.75 78.6261 125.684 78.5233 125.589 78.4536C125.494 78.3839 125.377 78.3524 125.26 78.3652L120.282 79.1415C120.167 79.1654 120.065 79.2312 119.997 79.326C119.928 79.4209 119.897 79.538 119.91 79.6544C119.934 79.769 120 79.8707 120.095 79.9394C120.189 80.0082 120.306 80.0391 120.423 80.0261Z" fill="white" stroke="#263238" stroke-miterlimit="10" stroke-linecap="round"/>
<path d="M119.261 84.7451C119.307 85.0714 119.449 85.3767 119.669 85.6223C119.889 85.8679 120.176 86.0428 120.495 86.1248C120.815 86.2068 121.151 86.1923 121.462 86.083C121.773 85.9737 122.045 85.7746 122.242 85.511C122.44 85.2473 122.555 84.9309 122.573 84.6018C122.591 84.2727 122.511 83.9457 122.342 83.6622C122.174 83.3787 121.926 83.1514 121.629 83.0092C121.331 82.8669 120.998 82.8161 120.672 82.8631C120.236 82.9261 119.842 83.1595 119.577 83.5123C119.313 83.8651 119.199 84.3085 119.261 84.7451Z" fill="#263238" stroke="#263238" stroke-miterlimit="10" stroke-linecap="round"/>
<path d="M121.082 84.2276L126.069 83.4559C126.184 83.4331 126.287 83.3677 126.357 83.2728C126.426 83.1778 126.458 83.0602 126.445 82.9431C126.422 82.8276 126.357 82.7248 126.262 82.6551C126.167 82.5854 126.049 82.5539 125.932 82.5667L120.955 83.343C120.84 83.3669 120.738 83.4327 120.669 83.5275C120.601 83.6224 120.57 83.7395 120.583 83.8559C120.606 83.9679 120.67 84.0675 120.762 84.1359C120.854 84.2043 120.967 84.2369 121.082 84.2276Z" fill="white" stroke="#263238" stroke-miterlimit="10" stroke-linecap="round"/>
<path d="M121.27 85.4555L126.248 84.6792C126.362 84.6554 126.464 84.5896 126.533 84.4947C126.601 84.3999 126.632 84.2828 126.619 84.1664C126.595 84.0517 126.53 83.9501 126.435 83.8813C126.34 83.8126 126.223 83.7817 126.106 83.7947L121.133 84.571C121.019 84.5938 120.917 84.6585 120.847 84.7524C120.777 84.8464 120.745 84.9628 120.757 85.0791C120.78 85.1947 120.845 85.2975 120.94 85.3672C121.035 85.4368 121.153 85.4684 121.27 85.4555Z" fill="white" stroke="#263238" stroke-miterlimit="10" stroke-linecap="round"/>
<path d="M120.108 90.1746C120.155 90.5017 120.298 90.8074 120.519 91.0528C120.74 91.2982 121.03 91.4723 121.35 91.5529C121.671 91.6335 122.008 91.6169 122.319 91.5053C122.63 91.3937 122.901 91.1921 123.097 90.9262C123.293 90.6603 123.405 90.342 123.42 90.0119C123.435 89.6818 123.351 89.3548 123.179 89.0724C123.008 88.7901 122.756 88.5652 122.456 88.4263C122.156 88.2874 121.822 88.2409 121.496 88.2926C121.063 88.3611 120.676 88.5969 120.416 88.9491C120.156 89.3012 120.045 89.7415 120.108 90.1746Z" fill="#263238" stroke="#263238" stroke-miterlimit="10" stroke-linecap="round"/>
<path d="M121.924 89.657L126.902 88.8807C127.016 88.8569 127.118 88.7911 127.187 88.6962C127.255 88.6014 127.286 88.4843 127.273 88.3679C127.249 88.2532 127.184 88.1516 127.089 88.0828C126.994 88.0141 126.877 87.9832 126.76 87.9962L121.787 88.7725C121.673 88.7953 121.571 88.86 121.501 88.9539C121.431 89.0479 121.399 89.1643 121.411 89.2806C121.434 89.3962 121.499 89.499 121.594 89.5686C121.689 89.6383 121.807 89.6699 121.924 89.657Z" fill="white" stroke="#263238" stroke-miterlimit="10" stroke-linecap="round"/>
<path d="M122.117 90.885L127.09 90.1087C127.205 90.0859 127.308 90.0205 127.378 89.9255C127.447 89.8306 127.479 89.713 127.466 89.5959C127.442 89.4812 127.377 89.3796 127.282 89.3108C127.187 89.2421 127.07 89.2112 126.953 89.2242L121.976 89.9958C121.861 90.0197 121.759 90.0855 121.69 90.1803C121.622 90.2751 121.591 90.3922 121.604 90.5086C121.627 90.6242 121.692 90.7269 121.787 90.7966C121.882 90.8663 122 90.8979 122.117 90.885Z" fill="white" stroke="#263238" stroke-miterlimit="10" stroke-linecap="round"/>
<path d="M120.95 95.6041C121 95.9286 121.146 96.2309 121.368 96.4731C121.59 96.7152 121.878 96.8863 122.197 96.9648C122.516 97.0433 122.851 97.0258 123.16 96.9145C123.469 96.8031 123.738 96.6029 123.934 96.3389C124.129 96.075 124.242 95.7592 124.259 95.4311C124.275 95.1031 124.195 94.7775 124.026 94.4953C123.858 94.2131 123.611 93.9869 123.314 93.8452C123.018 93.7034 122.686 93.6524 122.361 93.6986C122.143 93.7296 121.933 93.8037 121.743 93.9166C121.554 94.0295 121.388 94.1789 121.257 94.3562C121.126 94.5335 121.031 94.7351 120.978 94.9493C120.926 95.1635 120.916 95.3861 120.95 95.6041Z" fill="#263238" stroke="#263238" stroke-miterlimit="10" stroke-linecap="round"/>
<path d="M122.775 95.0865L127.748 94.3102C127.864 94.2874 127.967 94.222 128.036 94.127C128.106 94.0321 128.138 93.9145 128.125 93.7974C128.101 93.6827 128.035 93.581 127.94 93.5123C127.846 93.4436 127.728 93.4127 127.612 93.4257L122.634 94.1973C122.52 94.2212 122.418 94.287 122.349 94.3818C122.28 94.4766 122.25 94.5937 122.263 94.7101C122.285 94.8257 122.351 94.9284 122.446 94.9981C122.541 95.0678 122.658 95.0994 122.775 95.0865Z" fill="white" stroke="#263238" stroke-miterlimit="10" stroke-linecap="round"/>
<path d="M122.959 96.3098L127.951 95.5382C128.065 95.5143 128.167 95.4485 128.236 95.3537C128.305 95.2589 128.335 95.1418 128.322 95.0254C128.314 94.9672 128.295 94.9111 128.265 94.8607C128.235 94.8102 128.195 94.7664 128.147 94.7317C128.1 94.697 128.046 94.6722 127.989 94.6588C127.932 94.6454 127.872 94.6436 127.814 94.6537L122.822 95.4253C122.707 95.4481 122.604 95.5135 122.534 95.6085C122.465 95.7034 122.433 95.821 122.446 95.9381C122.47 96.0528 122.536 96.1545 122.631 96.2232C122.725 96.2919 122.842 96.3228 122.959 96.3098Z" fill="white" stroke="#263238" stroke-miterlimit="10" stroke-linecap="round"/>
<path d="M121.797 101.029C121.844 101.356 121.987 101.662 122.208 101.907C122.429 102.152 122.719 102.327 123.039 102.407C123.36 102.488 123.697 102.471 124.008 102.36C124.319 102.248 124.59 102.046 124.786 101.78C124.982 101.515 125.094 101.196 125.109 100.866C125.124 100.536 125.04 100.209 124.869 99.9267C124.697 99.6443 124.445 99.4194 124.145 99.2806C123.845 99.1417 123.511 99.0952 123.185 99.1469C122.752 99.2154 122.365 99.4512 122.105 99.8033C121.845 100.155 121.734 100.596 121.797 101.029Z" fill="#263238" stroke="#263238" stroke-miterlimit="10" stroke-linecap="round"/>
<path d="M123.613 100.516L128.591 99.7397C128.705 99.7158 128.807 99.65 128.876 99.5552C128.944 99.4603 128.975 99.3433 128.962 99.2269C128.938 99.1131 128.873 99.0121 128.78 98.9435C128.686 98.8749 128.57 98.8434 128.454 98.8552L123.476 99.6268C123.361 99.6496 123.258 99.715 123.188 99.8099C123.119 99.9049 123.087 100.023 123.1 100.14C123.123 100.255 123.188 100.358 123.283 100.428C123.378 100.497 123.496 100.529 123.613 100.516Z" fill="white" stroke="#263238" stroke-miterlimit="10" stroke-linecap="round"/>
<path d="M123.806 101.739L128.779 100.968C128.894 100.945 128.997 100.879 129.067 100.785C129.137 100.69 129.168 100.572 129.155 100.455C129.132 100.339 129.067 100.237 128.972 100.167C128.877 100.097 128.759 100.066 128.642 100.078L123.669 100.855C123.554 100.878 123.451 100.943 123.381 101.038C123.312 101.133 123.28 101.251 123.293 101.368C123.317 101.482 123.383 101.584 123.477 101.653C123.572 101.721 123.689 101.752 123.806 101.739Z" fill="white" stroke="#263238" stroke-miterlimit="10" stroke-linecap="round"/>
<path d="M122.639 106.458C122.685 106.785 122.827 107.09 123.047 107.336C123.267 107.581 123.554 107.756 123.874 107.838C124.193 107.92 124.529 107.905 124.84 107.796C125.151 107.687 125.423 107.488 125.62 107.224C125.818 106.961 125.933 106.644 125.951 106.315C125.969 105.986 125.889 105.659 125.721 105.375C125.553 105.092 125.304 104.865 125.007 104.722C124.709 104.58 124.377 104.529 124.05 104.576C123.614 104.64 123.221 104.874 122.957 105.227C122.693 105.579 122.578 106.022 122.639 106.458Z" fill="#263238" stroke="#263238" stroke-miterlimit="10" stroke-linecap="round"/>
<path d="M124.46 105.941L129.433 105.169C129.548 105.146 129.651 105.081 129.721 104.986C129.79 104.891 129.822 104.773 129.809 104.656C129.786 104.541 129.721 104.438 129.626 104.368C129.531 104.299 129.413 104.267 129.296 104.28L124.323 105.056C124.208 105.079 124.105 105.144 124.035 105.239C123.966 105.334 123.934 105.452 123.947 105.569C123.971 105.684 124.037 105.785 124.131 105.854C124.226 105.923 124.343 105.954 124.46 105.941Z" fill="white" stroke="#263238" stroke-miterlimit="10" stroke-linecap="round"/>
<path d="M124.657 107.188L129.635 106.416C129.75 106.392 129.851 106.326 129.92 106.231C129.989 106.137 130.02 106.02 130.007 105.903C129.984 105.788 129.919 105.686 129.825 105.617C129.731 105.547 129.615 105.515 129.499 105.527L124.521 106.303C124.406 106.327 124.305 106.393 124.236 106.488C124.167 106.582 124.136 106.699 124.149 106.816C124.158 106.874 124.178 106.929 124.208 106.98C124.238 107.03 124.278 107.073 124.326 107.108C124.373 107.143 124.426 107.167 124.483 107.181C124.54 107.195 124.599 107.197 124.657 107.188Z" fill="white" stroke="#263238" stroke-miterlimit="10" stroke-linecap="round"/>
<path d="M123.486 111.893C123.533 112.22 123.676 112.525 123.897 112.771C124.119 113.016 124.408 113.19 124.728 113.271C125.049 113.351 125.386 113.335 125.697 113.223C126.008 113.112 126.279 112.91 126.475 112.644C126.671 112.378 126.784 112.06 126.798 111.73C126.813 111.4 126.729 111.073 126.558 110.79C126.386 110.508 126.134 110.283 125.834 110.144C125.534 110.005 125.2 109.959 124.874 110.011C124.442 110.079 124.054 110.315 123.794 110.667C123.534 111.019 123.424 111.459 123.486 111.893Z" fill="#263238" stroke="#263238" stroke-miterlimit="10" stroke-linecap="round"/>
<path d="M125.302 111.37L130.303 110.599C130.362 110.59 130.418 110.57 130.468 110.539C130.519 110.509 130.563 110.468 130.597 110.421C130.632 110.373 130.657 110.319 130.67 110.261C130.683 110.204 130.685 110.144 130.675 110.086C130.652 109.971 130.587 109.869 130.493 109.8C130.4 109.73 130.283 109.698 130.167 109.709L125.165 110.481C125.107 110.49 125.051 110.51 125 110.54C124.95 110.571 124.906 110.611 124.871 110.659C124.837 110.707 124.812 110.761 124.799 110.819C124.785 110.876 124.784 110.936 124.794 110.994C124.802 111.052 124.821 111.108 124.851 111.159C124.881 111.21 124.921 111.254 124.969 111.289C125.016 111.324 125.07 111.349 125.127 111.363C125.184 111.377 125.244 111.38 125.302 111.37Z" fill="white" stroke="#263238" stroke-miterlimit="10" stroke-linecap="round"/>
<path d="M125.495 112.598L130.468 111.822C130.526 111.814 130.582 111.794 130.633 111.764C130.684 111.734 130.728 111.694 130.763 111.647C130.798 111.6 130.823 111.546 130.837 111.489C130.851 111.431 130.854 111.372 130.844 111.314C130.821 111.198 130.756 111.096 130.661 111.026C130.566 110.956 130.449 110.925 130.331 110.937L125.358 111.714C125.244 111.737 125.142 111.801 125.072 111.895C125.002 111.989 124.97 112.106 124.982 112.222C125.005 112.337 125.07 112.44 125.165 112.51C125.26 112.58 125.378 112.611 125.495 112.598Z" fill="white" stroke="#263238" stroke-miterlimit="10" stroke-linecap="round"/>
<path d="M124.328 117.317C124.374 117.644 124.516 117.949 124.736 118.195C124.956 118.44 125.243 118.615 125.563 118.697C125.882 118.779 126.218 118.764 126.529 118.655C126.84 118.546 127.112 118.347 127.309 118.083C127.507 117.819 127.622 117.503 127.64 117.174C127.658 116.845 127.578 116.518 127.41 116.234C127.242 115.951 126.993 115.724 126.696 115.581C126.398 115.439 126.066 115.388 125.739 115.435C125.303 115.499 124.911 115.733 124.646 116.086C124.382 116.438 124.267 116.881 124.328 117.317Z" fill="#263238" stroke="#263238" stroke-miterlimit="10" stroke-linecap="round"/>
<path d="M126.149 116.8L131.122 116.023C131.237 116.001 131.339 115.936 131.408 115.842C131.478 115.748 131.51 115.632 131.498 115.515C131.475 115.4 131.41 115.297 131.315 115.227C131.22 115.158 131.103 115.126 130.985 115.139L126.012 115.915C125.898 115.938 125.796 116.003 125.726 116.097C125.656 116.191 125.624 116.307 125.636 116.423C125.659 116.539 125.724 116.642 125.819 116.711C125.914 116.781 126.032 116.813 126.149 116.8Z" fill="white" stroke="#263238" stroke-miterlimit="10" stroke-linecap="round"/>
<path d="M126.342 118.009L131.315 117.233C131.43 117.21 131.533 117.144 131.603 117.049C131.672 116.954 131.704 116.837 131.691 116.72C131.667 116.605 131.602 116.503 131.507 116.435C131.412 116.366 131.295 116.335 131.178 116.348L126.201 117.12C126.086 117.144 125.984 117.209 125.915 117.304C125.847 117.399 125.816 117.516 125.829 117.633C125.852 117.748 125.917 117.851 126.012 117.921C126.107 117.99 126.225 118.022 126.342 118.009Z" fill="white" stroke="#263238" stroke-miterlimit="10" stroke-linecap="round"/>
<path d="M125.175 122.747C125.222 123.074 125.365 123.38 125.586 123.625C125.808 123.87 126.097 124.045 126.417 124.125C126.738 124.206 127.075 124.189 127.386 124.078C127.697 123.966 127.968 123.764 128.164 123.498C128.36 123.232 128.473 122.914 128.487 122.584C128.502 122.254 128.418 121.927 128.247 121.645C128.075 121.362 127.823 121.137 127.523 120.998C127.224 120.86 126.889 120.813 126.563 120.865C126.131 120.933 125.743 121.169 125.483 121.521C125.223 121.873 125.113 122.314 125.175 122.747Z" fill="#263238" stroke="#263238" stroke-miterlimit="10" stroke-linecap="round"/>
<path d="M127.01 122.243L131.983 121.467C132.098 121.444 132.201 121.379 132.271 121.284C132.341 121.189 132.372 121.071 132.359 120.954C132.335 120.84 132.27 120.738 132.175 120.669C132.08 120.6 131.963 120.569 131.846 120.582L126.869 121.354C126.754 121.378 126.652 121.444 126.584 121.539C126.515 121.633 126.484 121.751 126.497 121.867C126.52 121.982 126.585 122.085 126.68 122.155C126.775 122.225 126.893 122.256 127.01 122.243Z" fill="white" stroke="#263238" stroke-miterlimit="10" stroke-linecap="round"/>
<path d="M127.184 123.457L132.185 122.681C132.3 122.657 132.402 122.591 132.47 122.496C132.539 122.402 132.57 122.284 132.557 122.168C132.533 122.053 132.467 121.952 132.372 121.883C132.278 121.814 132.16 121.783 132.044 121.796L127.071 122.568C126.955 122.591 126.853 122.656 126.783 122.751C126.713 122.846 126.682 122.964 126.695 123.081C126.717 123.192 126.779 123.291 126.869 123.36C126.959 123.43 127.071 123.464 127.184 123.457Z" fill="white" stroke="#263238" stroke-miterlimit="10" stroke-linecap="round"/>
<path d="M126.022 128.176C126.072 128.501 126.218 128.803 126.44 129.045C126.662 129.287 126.95 129.458 127.269 129.537C127.588 129.616 127.923 129.598 128.232 129.487C128.541 129.375 128.81 129.175 129.006 128.911C129.201 128.647 129.314 128.331 129.331 128.003C129.347 127.675 129.266 127.35 129.098 127.068C128.93 126.785 128.683 126.559 128.386 126.417C128.09 126.276 127.758 126.225 127.433 126.271C127.215 126.302 127.005 126.376 126.815 126.489C126.626 126.602 126.46 126.751 126.329 126.928C126.198 127.106 126.103 127.307 126.05 127.521C125.997 127.736 125.988 127.958 126.022 128.176Z" fill="#263238" stroke="#263238" stroke-miterlimit="10" stroke-linecap="round"/>
<path d="M127.838 127.659L132.816 126.882C132.93 126.859 133.032 126.793 133.101 126.698C133.169 126.603 133.2 126.486 133.187 126.37C133.161 126.253 133.092 126.151 132.993 126.083C132.894 126.016 132.774 125.989 132.656 126.007L127.683 126.779C127.567 126.802 127.464 126.867 127.395 126.962C127.325 127.057 127.293 127.175 127.306 127.292C127.331 127.409 127.4 127.513 127.499 127.581C127.598 127.649 127.719 127.677 127.838 127.659Z" fill="white" stroke="#263238" stroke-miterlimit="10" stroke-linecap="round"/>
<path d="M128.031 128.882L133.004 128.11C133.119 128.088 133.222 128.022 133.292 127.927C133.362 127.832 133.393 127.715 133.38 127.598C133.357 127.482 133.292 127.379 133.197 127.31C133.102 127.24 132.984 127.208 132.867 127.221L127.89 127.997C127.775 128.021 127.673 128.087 127.605 128.182C127.536 128.277 127.505 128.394 127.518 128.51C127.542 128.625 127.608 128.727 127.702 128.795C127.797 128.864 127.914 128.895 128.031 128.882Z" fill="white" stroke="#263238" stroke-miterlimit="10" stroke-linecap="round"/>
<path d="M126.864 133.601C126.911 133.928 127.054 134.234 127.275 134.479C127.497 134.725 127.786 134.899 128.106 134.979C128.427 135.06 128.764 135.043 129.075 134.932C129.386 134.82 129.657 134.619 129.853 134.353C130.049 134.087 130.162 133.768 130.176 133.438C130.191 133.108 130.107 132.781 129.936 132.499C129.764 132.217 129.512 131.992 129.212 131.853C128.913 131.714 128.578 131.667 128.252 131.719C127.82 131.788 127.432 132.023 127.172 132.376C126.912 132.728 126.802 133.168 126.864 133.601Z" fill="#263238" stroke="#263238" stroke-miterlimit="10" stroke-linecap="round"/>
<path d="M128.685 133.065L133.658 132.293C133.773 132.27 133.876 132.205 133.946 132.11C134.016 132.015 134.047 131.897 134.034 131.78C134.026 131.722 134.005 131.666 133.975 131.615C133.944 131.565 133.904 131.521 133.856 131.486C133.808 131.452 133.754 131.427 133.697 131.414C133.639 131.4 133.58 131.399 133.521 131.409L128.544 132.18C128.429 132.204 128.327 132.27 128.259 132.365C128.19 132.46 128.159 132.577 128.172 132.693C128.18 132.751 128.201 132.807 128.231 132.858C128.262 132.908 128.302 132.952 128.35 132.987C128.398 133.022 128.452 133.046 128.509 133.06C128.567 133.073 128.627 133.075 128.685 133.065Z" fill="white" stroke="#263238" stroke-miterlimit="10" stroke-linecap="round"/>
<path d="M128.892 134.311L133.851 133.535C133.965 133.511 134.067 133.446 134.136 133.351C134.205 133.256 134.235 133.139 134.222 133.022C134.2 132.907 134.134 132.804 134.039 132.734C133.944 132.665 133.827 132.633 133.71 132.646L128.736 133.422C128.621 133.445 128.518 133.51 128.448 133.605C128.379 133.7 128.347 133.818 128.36 133.935C128.383 134.054 128.451 134.16 128.55 134.23C128.649 134.3 128.772 134.329 128.892 134.311Z" fill="white" stroke="#263238" stroke-miterlimit="10" stroke-linecap="round"/>
<path d="M127.711 139.031C127.758 139.358 127.901 139.663 128.122 139.909C128.344 140.154 128.633 140.328 128.953 140.409C129.274 140.489 129.611 140.473 129.922 140.361C130.233 140.25 130.504 140.048 130.7 139.782C130.896 139.516 131.009 139.198 131.023 138.868C131.038 138.538 130.954 138.211 130.783 137.928C130.611 137.646 130.359 137.421 130.059 137.282C129.759 137.143 129.425 137.097 129.099 137.149C128.667 137.217 128.279 137.453 128.019 137.805C127.759 138.157 127.649 138.597 127.711 139.031Z" fill="#263238" stroke="#263238" stroke-miterlimit="10" stroke-linecap="round"/>
<path d="M129.527 138.513L134.505 137.741C134.619 137.717 134.721 137.652 134.79 137.557C134.859 137.462 134.889 137.345 134.876 137.229C134.854 137.113 134.788 137.01 134.693 136.941C134.598 136.871 134.481 136.839 134.364 136.852L129.39 137.628C129.275 137.651 129.172 137.717 129.102 137.812C129.033 137.907 129.001 138.024 129.014 138.141C129.038 138.256 129.104 138.358 129.199 138.426C129.293 138.495 129.411 138.526 129.527 138.513Z" fill="white" stroke="#263238" stroke-miterlimit="10" stroke-linecap="round"/>
<path d="M129.72 139.741L134.693 138.965C134.808 138.942 134.91 138.877 134.979 138.783C135.049 138.689 135.081 138.573 135.069 138.457C135.046 138.341 134.981 138.238 134.886 138.169C134.791 138.099 134.674 138.067 134.556 138.08L129.579 138.856C129.464 138.88 129.362 138.946 129.294 139.041C129.225 139.136 129.194 139.253 129.207 139.369C129.231 139.484 129.297 139.586 129.391 139.654C129.486 139.723 129.603 139.754 129.72 139.741Z" fill="white" stroke="#263238" stroke-miterlimit="10" stroke-linecap="round"/>
<path d="M128.553 144.46C128.599 144.786 128.741 145.092 128.961 145.337C129.181 145.583 129.468 145.758 129.788 145.84C130.107 145.922 130.443 145.907 130.754 145.798C131.065 145.689 131.337 145.49 131.535 145.226C131.732 144.962 131.847 144.646 131.865 144.317C131.883 143.988 131.803 143.661 131.635 143.377C131.467 143.094 131.218 142.866 130.921 142.724C130.624 142.582 130.291 142.531 129.964 142.578C129.528 142.641 129.134 142.874 128.87 143.227C128.605 143.58 128.491 144.023 128.553 144.46Z" fill="#263238" stroke="#263238" stroke-miterlimit="10" stroke-linecap="round"/>
<path d="M130.374 143.942L135.347 143.171C135.462 143.148 135.565 143.083 135.635 142.988C135.705 142.893 135.736 142.775 135.723 142.658C135.7 142.542 135.635 142.44 135.54 142.37C135.445 142.3 135.328 142.269 135.21 142.282L130.233 143.058C130.118 143.082 130.016 143.148 129.948 143.242C129.879 143.337 129.848 143.454 129.861 143.571C129.885 143.685 129.951 143.787 130.045 143.856C130.14 143.925 130.257 143.955 130.374 143.942Z" fill="white" stroke="#263238" stroke-miterlimit="10" stroke-linecap="round"/>
<path d="M130.562 145.17L135.54 144.394C135.654 144.37 135.756 144.304 135.825 144.21C135.894 144.115 135.925 143.998 135.912 143.881C135.903 143.823 135.883 143.768 135.853 143.718C135.822 143.667 135.782 143.624 135.735 143.589C135.688 143.555 135.634 143.53 135.577 143.516C135.52 143.502 135.461 143.5 135.403 143.51L130.426 144.286C130.367 144.294 130.311 144.314 130.261 144.344C130.21 144.374 130.167 144.414 130.132 144.461C130.097 144.509 130.072 144.562 130.059 144.62C130.046 144.677 130.044 144.736 130.054 144.794C130.077 144.909 130.141 145.011 130.235 145.08C130.329 145.15 130.446 145.182 130.562 145.17Z" fill="white" stroke="#263238" stroke-miterlimit="10" stroke-linecap="round"/>
<g opacity="0.3">
<path d="M57.4145 52.3799L58.6519 52.1917" stroke="black" stroke-miterlimit="10" stroke-linecap="round"/>
<path d="M59.8893 51.9988L61.1267 51.8059" stroke="black" stroke-miterlimit="10" stroke-linecap="round"/>
<path d="M45.3229 56.0074L46.5556 55.8145" stroke="black" stroke-miterlimit="10" stroke-linecap="round"/>
<path d="M47.793 55.6216L49.0304 55.4287" stroke="black" stroke-miterlimit="10" stroke-linecap="round"/>
<path d="M50.2678 55.2405L51.5004 55.0476" stroke="black" stroke-miterlimit="10" stroke-linecap="round"/>
<path d="M52.7378 54.8547L53.9752 54.6618" stroke="black" stroke-miterlimit="10" stroke-linecap="round"/>
<path d="M55.2079 54.4689L56.4453 54.276" stroke="black" stroke-miterlimit="10" stroke-linecap="round"/>
<path d="M57.6827 54.0831L58.9154 53.8902" stroke="black" stroke-miterlimit="10" stroke-linecap="round"/>
<path d="M60.1528 53.6973L61.3902 53.5091" stroke="black" stroke-miterlimit="10" stroke-linecap="round"/>
<path d="M45.5864 57.7106L46.8238 57.5177" stroke="black" stroke-miterlimit="10" stroke-linecap="round"/>
<path d="M48.0564 57.3248L49.2938 57.1319" stroke="black" stroke-miterlimit="10" stroke-linecap="round"/>
<path d="M50.5312 56.939L51.7686 56.7508" stroke="black" stroke-miterlimit="10" stroke-linecap="round"/>
<path d="M53.0013 56.5579L54.2387 56.365" stroke="black" stroke-miterlimit="10" stroke-linecap="round"/>
<path d="M55.4761 56.1721L56.7088 55.9792" stroke="black" stroke-miterlimit="10" stroke-linecap="round"/>
<path d="M57.9462 55.7863L59.1836 55.5934" stroke="black" stroke-miterlimit="10" stroke-linecap="round"/>
<path d="M60.4163 55.4005L61.6537 55.2076" stroke="black" stroke-miterlimit="10" stroke-linecap="round"/>
<path d="M45.8498 59.4138L47.0872 59.2209" stroke="black" stroke-miterlimit="10" stroke-linecap="round"/>
<path d="M48.3246 59.028L49.5573 58.8351" stroke="black" stroke-miterlimit="10" stroke-linecap="round"/>
<path d="M50.7947 58.6422L52.0321 58.4493" stroke="black" stroke-miterlimit="10" stroke-linecap="round"/>
<path d="M53.2695 58.2611L54.5022 58.0682" stroke="black" stroke-miterlimit="10" stroke-linecap="round"/>
<path d="M55.7396 57.8753L56.977 57.6824" stroke="black" stroke-miterlimit="10" stroke-linecap="round"/>
<path d="M58.2097 57.4895L59.4471 57.2966" stroke="black" stroke-miterlimit="10" stroke-linecap="round"/>
<path d="M60.6845 57.1037L61.9171 56.9108" stroke="black" stroke-miterlimit="10" stroke-linecap="round"/>
<path d="M46.118 61.117L47.3507 60.9241" stroke="black" stroke-miterlimit="10" stroke-linecap="round"/>
<path d="M48.5881 60.7312L49.8255 60.5383" stroke="black" stroke-miterlimit="10" stroke-linecap="round"/>
<path d="M51.0582 60.3454L52.2956 60.1525" stroke="black" stroke-miterlimit="10" stroke-linecap="round"/>
<path d="M53.533 59.9596L54.7704 59.7714" stroke="black" stroke-miterlimit="10" stroke-linecap="round"/>
<path d="M56.0031 59.5785L57.2404 59.3856" stroke="black" stroke-miterlimit="10" stroke-linecap="round"/>
<path d="M58.4778 59.1927L59.7105 58.9998" stroke="black" stroke-miterlimit="10" stroke-linecap="round"/>
<path d="M60.9479 58.8069L62.1853 58.614" stroke="black" stroke-miterlimit="10" stroke-linecap="round"/>
<path d="M44.7065 52.0694L45.9439 51.8765" stroke="black" stroke-miterlimit="10" stroke-linecap="round"/>
<path d="M47.1813 51.6836L48.4187 51.4954" stroke="black" stroke-miterlimit="10" stroke-linecap="round"/>
<path d="M49.6514 51.3025L50.8888 51.1096" stroke="black" stroke-miterlimit="10" stroke-linecap="round"/>
<path d="M52.1262 50.9167L53.3589 50.7238" stroke="black" stroke-miterlimit="10" stroke-linecap="round"/>
<path d="M54.5963 50.5309L55.8337 50.338" stroke="black" stroke-miterlimit="10" stroke-linecap="round"/>
<path d="M57.0711 50.1451L58.3038 49.9569" stroke="black" stroke-miterlimit="10" stroke-linecap="round"/>
<path d="M59.5412 49.764L60.7785 49.5711" stroke="black" stroke-miterlimit="10" stroke-linecap="round"/>
<path d="M61.0326 50.5121L44.7536 53.0433" stroke="black" stroke-miterlimit="10" stroke-linecap="round"/>
<path d="M49.2703 49.1806L55.5514 48.202" stroke="black" stroke-miterlimit="10" stroke-linecap="round"/>
<path d="M41.4695 66.7394L110.74 55.9604" stroke="black" stroke-miterlimit="10" stroke-linecap="round"/>
<path d="M42.34 72.3194L111.606 61.5404" stroke="black" stroke-miterlimit="10" stroke-linecap="round"/>
<path d="M43.2057 77.8947L112.476 67.1158" stroke="black" stroke-miterlimit="10" stroke-linecap="round"/>
<path d="M44.0761 83.4748L113.342 72.6958" stroke="black" stroke-miterlimit="10" stroke-linecap="round"/>
<path d="M44.9418 89.0548L114.212 78.2758" stroke="black" stroke-miterlimit="10" stroke-linecap="round"/>
<path d="M45.8122 94.6349L115.078 83.8512" stroke="black" stroke-miterlimit="10" stroke-linecap="round"/>
<path d="M46.6779 100.21L115.948 89.4312" stroke="black" stroke-miterlimit="10" stroke-linecap="round"/>
<path d="M47.5483 105.79L116.814 95.0112" stroke="black" stroke-miterlimit="10" stroke-linecap="round"/>
<path d="M48.414 111.37L117.685 100.591" stroke="black" stroke-miterlimit="10" stroke-linecap="round"/>
<path d="M49.2844 116.95L118.55 106.167" stroke="black" stroke-miterlimit="10" stroke-linecap="round"/>
<path d="M50.1501 122.526L119.421 111.747" stroke="black" stroke-miterlimit="10" stroke-linecap="round"/>
<path d="M51.0205 128.106L120.291 117.327" stroke="black" stroke-miterlimit="10" stroke-linecap="round"/>
<path d="M51.8862 133.686L121.157 122.907" stroke="black" stroke-miterlimit="10" stroke-linecap="round"/>
<path d="M53.9517 146.935L123.218 136.156" stroke="black" stroke-miterlimit="10" stroke-linecap="round"/>
<path d="M54.6386 151.353L123.905 140.569" stroke="black" stroke-miterlimit="10" stroke-linecap="round"/>
<path d="M55.3255 155.766L124.591 144.987" stroke="black" stroke-miterlimit="10" stroke-linecap="round"/>
</g>
<path d="M51.3499 72.1077C51.3499 72.1077 45.4405 78.5017 48.8563 77.4948C52.272 76.488 56.944 69.807 55.9513 72.5829C54.9586 75.3588 55.0103 77.2502 56.6147 75.3353C58.2191 73.4204 59.1177 73.0393 58.7931 74.0414C58.4684 75.0436 59.7952 74.3613 59.7952 74.3613C59.7952 74.3613 63.0887 72.4229 62.7452 73.4203C62.4018 74.4178 62.1947 74.4601 63.1263 74.3143L66.1469 73.8438C66.1469 73.8438 65.9493 74.1167 68.7393 73.6791C71.5293 73.2416 72.6161 72.6017 74.0135 72.3853" stroke="#263238" stroke-miterlimit="10" stroke-linecap="round"/>
<path d="M48.6681 80.84C48.6681 80.84 53.2224 77.9888 53.7964 78.6146C54.3704 79.2403 53.5847 80.3131 55.6408 79.7579C57.6968 79.2027 59.5694 77.4807 59.7152 78.4076C59.8611 79.3344 61.1832 78.6569 61.1832 78.6569L62.3453 78.4734C62.3453 78.4734 64.4719 78.384 65.1353 78.0406C65.7987 77.6971 66.4856 74.4978 65.9775 78.8639C65.4694 83.2301 63.6862 79.4568 67.9253 77.6077C72.1645 75.7587 72.9502 77.7771 72.9502 77.7771C73.4195 77.6711 73.8755 77.5133 74.3099 77.3066C75.1991 76.9255 75.9849 75.8528 76.827 76.6762C77.6692 77.4995 79.1795 74.8836 79.1795 74.8836C79.7672 74.9932 80.3471 75.141 80.9156 75.3258C81.4603 75.5162 82.0393 75.5883 82.6141 75.5376C83.3244 75.5648 84.0357 75.5334 84.7407 75.4435C85.6817 75.2976 86.458 74.2249 87.2249 74.5825C87.9918 74.94 89.1539 71.6607 88.5705 75.5611C87.9871 79.4615 84.2138 81.2399 85.7476 78.8545C87.1014 76.771 88.8404 74.9649 90.8712 73.5333C92.5885 72.3147 93.0873 72.4747 93.4637 73.3686C93.8401 74.2625 94.3058 74.1873 95.1998 73.8109C96.0937 73.4345 95.3268 73.0769 96.0937 73.4345C96.349 73.5796 96.6304 73.673 96.9219 73.7094C97.2133 73.7457 97.5091 73.7242 97.7922 73.6462C98.4932 73.538 95.2233 75.4764 98.4932 73.538C101.763 71.5995 102.93 63.7988 101.217 68.1132C99.5048 72.4276 100.154 73.5192 102.445 72.9216" stroke="#263238" stroke-miterlimit="10" stroke-linecap="round"/>
<path d="M49.1621 88.6361C49.1621 88.6361 54.7515 83.2442 54.4081 82.5808C54.0646 81.9174 52.2815 82.6749 50.9782 85.018C49.6749 87.361 50.5924 88.6502 54.0976 86.6788C57.6027 84.7075 52.5026 87.1493 56.1019 87.3187C59.7011 87.4881 60.7644 85.1638 60.8727 85.8602C60.9809 86.5565 59.7811 86.5047 62.6088 86.3307C65.4364 86.1566 64.0532 84.9192 66.9514 85.178C69.8497 85.4367 71.1388 84.524 71.1388 84.524L72.9972 84.237C72.9972 84.237 69.2333 84.5804 74.1217 83.8229C79.0101 83.0654 81.1556 77.0149 78.8031 80.2378C76.4507 83.4607 77.5563 84.4722 79.9699 83.1501L82.3836 81.8233C82.3836 81.8233 85.4324 78.4923 83.9927 82.9996C82.553 87.5069 80.8498 84.204 86.2087 81.941C91.5676 79.6779 91.4311 81.8422 93.219 81.0894C95.0069 80.3366 94.7152 78.4734 95.9008 79.9555C97.0865 81.4375 97.0112 80.9765 98.8696 80.6848C100.728 80.393 100.229 80.2143 101.857 79.9837L105.367 79.4285" stroke="#263238" stroke-miterlimit="10" stroke-linecap="round"/>
<path d="M50.1031 105.395C50.1031 105.395 53.9988 102.883 54.6198 99.2127C55.2409 95.5429 52.1686 100.309 52.5026 105.494C52.8367 110.679 51.0111 103.584 56.4453 101.786C61.8795 99.989 55.9748 103.292 56.5771 104.139C57.1793 104.986 61.6349 101.448 61.5831 102.643C61.5314 103.838 62.5241 104.162 65.2624 101.833C68.0006 99.5044 63.5451 99.9514 63.3333 101.659C63.1216 103.367 64.4437 102.676 67.8218 101.433C71.2 100.191 67.8924 101.904 69.9861 101.575C72.0798 101.245 76.6859 97.199 75.7779 99.0057C74.8698 100.812 75.7449 101.871 76.7612 100.761C77.7775 99.6503 79.9417 96.6909 80.1205 97.853C80.2282 98.5393 80.0791 99.2412 79.7018 99.8244" stroke="#263238" stroke-miterlimit="10" stroke-linecap="round"/>
<path opacity="0.3" d="M28.2675 61.1217C28.1767 61.0256 28.0792 60.936 27.9758 60.8535C27.6773 60.6209 27.35 60.428 27.0019 60.2795L26.7949 60.2042H26.7431C24.8894 59.6302 18.5519 59.3573 16.4252 59.2632C15.8948 59.2448 15.3736 59.4063 14.9465 59.7215C14.5195 60.0366 14.2115 60.487 14.0728 60.9994V61.0511C13.6211 62.7778 7.17535 105.376 7.17535 105.376C7.17535 105.376 7.1283 106.317 7.06243 107.79C7.0342 108.434 7.00597 109.201 6.96833 109.978C6.96833 110.18 6.96833 110.382 6.96833 110.589C6.96833 111.003 6.9354 111.427 6.91658 111.855C6.85542 113.365 6.79896 114.955 6.75661 116.409C6.72368 117.444 6.70015 118.414 6.68604 119.232C6.68604 119.886 6.68604 120.441 6.68604 120.865C6.6806 121.851 6.73559 122.836 6.85071 123.815C7.0342 125.029 7.45765 125.589 8.50214 125.772C8.76091 125.819 9.13731 125.876 9.59368 125.932L9.87598 125.965L11.1698 126.106L11.5274 126.139L12.6331 126.228L13.3953 126.275L14.1622 126.313C14.6656 126.337 15.1643 126.346 15.6395 126.346C16.3315 126.356 17.0233 126.317 17.7097 126.228H17.7708L17.9449 126.195L18.1378 126.148H18.1755L18.3684 126.087L18.693 125.965L18.9894 125.843C19.3887 125.683 19.769 125.479 20.1233 125.236C20.2378 125.154 20.3478 125.066 20.4526 124.972C20.553 124.884 20.6471 124.79 20.7349 124.69L20.8573 124.544C21.0287 124.329 21.1859 124.102 21.3278 123.867C21.3512 123.83 21.3701 123.79 21.3842 123.749L21.4125 123.678L21.4595 123.556C21.4699 123.519 21.4825 123.483 21.4971 123.448C21.4971 123.396 21.5254 123.354 21.5442 123.297L21.5865 123.166C21.5865 123.104 21.6195 123.048 21.6383 122.982C21.6571 122.916 21.6712 122.879 21.6853 122.827C21.6995 122.775 21.723 122.686 21.7465 122.61C21.77 122.535 21.7794 122.483 21.7983 122.422C21.8171 122.361 21.8359 122.272 21.8594 122.187C21.8829 122.102 21.8971 122.046 21.9159 121.975C21.9347 121.905 21.9582 121.806 21.9817 121.712L22.0382 121.491L22.1088 121.204C22.1088 121.124 22.1511 121.034 22.1747 120.949L22.2452 120.648C22.2688 120.564 22.2876 120.47 22.3111 120.38C22.3346 120.291 22.3628 120.168 22.3864 120.06L22.4569 119.773C22.4569 119.665 22.5087 119.557 22.5322 119.444C22.5558 119.331 22.5793 119.237 22.6075 119.133C22.6357 119.03 22.6593 118.908 22.6828 118.79C22.6849 118.757 22.6849 118.724 22.6828 118.691C22.6828 118.625 22.7157 118.559 22.7298 118.494C22.7439 118.428 22.7863 118.239 22.8192 118.108C22.8522 117.976 22.8616 117.91 22.8851 117.807C22.9086 117.703 22.9416 117.548 22.9745 117.416L23.0451 117.106L23.1298 116.715C23.1298 116.602 23.1815 116.485 23.205 116.372L23.2897 116C23.2897 115.882 23.3415 115.76 23.365 115.642L23.4497 115.271C23.4497 115.214 23.4497 115.158 23.4826 115.101C23.5156 115.045 23.5156 114.97 23.5297 114.904C23.5438 114.838 23.5814 114.659 23.6049 114.537C23.6285 114.414 23.6567 114.297 23.6849 114.174C23.7132 114.052 23.7367 113.92 23.7649 113.798C23.7931 113.676 23.8167 113.553 23.8449 113.431C23.8731 113.309 23.8919 113.196 23.9202 113.078C23.9484 112.961 23.9719 112.819 24.0002 112.688L24.0707 112.349C24.099 112.227 24.1225 112.109 24.146 111.991C24.1695 111.874 24.1978 111.742 24.226 111.62L24.2966 111.267C24.2966 111.159 24.3436 111.05 24.3624 110.942C24.3813 110.834 24.3954 110.782 24.4142 110.702L24.4424 110.566C24.4424 110.462 24.4848 110.359 24.5036 110.255C24.5224 110.152 24.5553 110.02 24.5789 109.902C24.6024 109.785 24.6165 109.7 24.64 109.601L24.7106 109.239C24.7106 109.159 24.7435 109.074 24.7577 108.994L24.8141 108.721C24.8141 108.688 24.8141 108.656 24.8141 108.618C24.8141 108.58 24.847 108.463 24.8612 108.383L24.9317 108.039L24.9741 107.804C24.9976 107.696 25.0164 107.588 25.0352 107.489L25.0776 107.282L25.1341 106.966C25.1341 106.91 25.1341 106.858 25.167 106.806L25.2234 106.501L25.2517 106.35C25.2517 106.256 25.2846 106.167 25.2987 106.082C25.2987 105.969 25.3364 105.856 25.3552 105.757C25.4352 105.287 25.5434 104.247 25.6751 102.793C25.7269 102.247 25.7786 101.645 25.8351 100.987C26.0374 98.587 26.2726 95.5006 26.522 92.113C26.522 91.8072 26.5643 91.4967 26.5879 91.172C27.5289 78.3652 28.5733 61.9309 28.5733 61.9309C28.5794 61.7824 28.5554 61.6342 28.5029 61.4952C28.4503 61.3561 28.3703 61.2291 28.2675 61.1217Z" fill="black"/>
<path d="M4.97814 104.906C4.97814 104.906 4.39944 117.026 4.46531 120.385C4.53118 123.744 4.61116 125 6.2767 125.297C7.94225 125.593 14.3692 126.238 16.157 125.589C17.9449 124.939 18.5095 124.365 19.1117 123.373C19.714 122.38 22.5463 108.99 23.1862 105.23C23.8261 101.471 26.4091 61.4181 26.4091 61.4181C26.4091 61.4181 26.5079 60.5665 24.7906 59.809C23.3791 59.1738 16.4535 58.868 14.2139 58.7927C13.6801 58.7686 13.154 58.9269 12.7221 59.2416C12.2903 59.5563 11.9784 60.0086 11.8379 60.5242C11.8379 60.5242 11.8379 60.5618 11.8379 60.5759C11.4098 62.3026 4.97814 104.906 4.97814 104.906Z" fill="#D6A72F"/>
<path opacity="0.5" d="M15.2066 125.786C15.5268 125.756 15.8425 125.69 16.1476 125.589C17.9543 124.939 18.5001 124.365 19.1023 123.373C19.7045 122.38 22.5369 108.99 23.1768 105.23C23.8167 101.471 26.3997 61.4181 26.3997 61.4181C26.3997 61.4181 26.4985 60.5665 24.7812 59.809C24.6152 59.7396 24.4437 59.6845 24.2683 59.6443C23.8966 68.9366 22.6404 79.9696 20.4338 93.0775C18.3731 105.48 16.0347 120.47 15.2066 125.786Z" fill="black"/>
<path d="M4.97814 104.906C4.97814 104.906 4.39944 117.026 4.46531 120.385C4.53118 123.744 4.61116 125 6.2767 125.297C7.94225 125.593 14.3692 126.238 16.157 125.589C17.9449 124.939 18.5095 124.365 19.1117 123.373C19.714 122.38 22.5463 108.99 23.1862 105.23C23.8261 101.471 26.4091 61.4181 26.4091 61.4181C26.4091 61.4181 26.5079 60.5665 24.7906 59.809C23.3791 59.1738 16.4535 58.868 14.2139 58.7927C13.6801 58.7686 13.154 58.9269 12.7221 59.2416C12.2903 59.5563 11.9784 60.0086 11.8379 60.5242C11.8379 60.5242 11.8379 60.5618 11.8379 60.5759C11.4098 62.3026 4.97814 104.906 4.97814 104.906Z" stroke="#263238" stroke-linecap="round" stroke-linejoin="round"/>
<path d="M18.1237 106.312C16.1147 106.312 7.46234 105.4 6.12144 105.113C5.73976 105.033 5.36278 104.933 4.99226 104.812V104.906C4.99226 104.906 4.41355 117.026 4.47942 120.385C4.54529 123.744 4.62527 125 6.29082 125.297C7.95636 125.593 14.3833 126.238 16.1712 125.589C17.959 124.939 18.5236 124.365 19.1258 123.373C19.7281 122.38 22.4193 109.728 23.1439 105.56C21.4501 106.44 19.7751 106.298 18.1237 106.312Z" fill="#263238"/>
<path opacity="0.5" d="M15.2066 125.786C15.5268 125.756 15.8425 125.69 16.1476 125.589C17.9543 124.939 18.5001 124.365 19.1023 123.373C19.7045 122.38 22.5369 108.99 23.1768 105.23C23.8167 101.471 26.3997 61.4181 26.3997 61.4181C26.3997 61.4181 26.4985 60.5665 24.7812 59.809C24.6152 59.7396 24.4437 59.6845 24.2683 59.6443C23.8966 68.9366 22.6404 79.9696 20.4338 93.0775C18.3731 105.48 16.0347 120.47 15.2066 125.786Z" fill="black"/>
<path opacity="0.26" d="M18.1425 107.432C19.464 107.376 20.7752 107.174 22.0523 106.83" stroke="white" stroke-linecap="round" stroke-linejoin="round"/>
<path d="M5.66505 106.044C5.66505 106.044 16.2841 107.498 18.1425 107.432" stroke="white" stroke-linecap="round" stroke-linejoin="round"/>
<path d="M18.1237 106.312C16.1147 106.312 7.46234 105.4 6.12144 105.113C5.73976 105.033 5.36278 104.933 4.99226 104.812V104.906C4.99226 104.906 4.41355 117.026 4.47942 120.385C4.54529 123.744 4.62527 125 6.29082 125.297C7.95636 125.593 14.3833 126.238 16.1712 125.589C17.959 124.939 18.5236 124.365 19.1258 123.373C19.7281 122.38 22.4193 109.728 23.1439 105.56C21.4501 106.44 19.7751 106.298 18.1237 106.312Z" stroke="#263238" stroke-linecap="round" stroke-linejoin="round"/>
<path d="M156.5 56.6164C166.389 51.4662 170.231 39.2743 165.08 29.3851C159.93 19.4958 147.738 15.654 137.849 20.8043C127.96 25.9545 124.118 38.1464 129.268 48.0356C134.418 57.9249 146.61 61.7667 156.5 56.6164Z" fill="#263238" stroke="#263238" stroke-linecap="round" stroke-linejoin="round"/>
<path d="M165.699 39.1983C167.075 28.1335 159.221 18.0481 148.157 16.6719C137.092 15.2957 127.007 23.1498 125.63 34.2145C124.254 45.2792 132.108 55.3646 143.173 56.7408C154.238 58.1171 164.323 50.263 165.699 39.1983Z" fill="white" stroke="#263238" stroke-linecap="round" stroke-linejoin="round"/>
<path d="M163.612 39.6573C165.24 29.7471 158.527 20.3934 148.616 18.7652C138.706 17.137 129.352 23.8509 127.724 33.7611C126.096 43.6713 132.81 53.025 142.72 54.6531C152.63 56.2813 161.984 49.5674 163.612 39.6573Z" fill="#263238" stroke="#263238" stroke-linecap="round" stroke-linejoin="round"/>
<path d="M143.538 23.04C143.538 23.04 141.534 18.0246 138.019 14.5006C134.505 10.9766 120.216 8.73234 120.216 8.73234C122.523 10.9598 124.621 13.3946 126.483 16.0062C129.743 20.5182 140.532 30.8031 140.532 30.8031C140.532 30.8031 135.262 26.2864 130.496 25.7877C125.73 25.289 113.695 27.792 112.942 27.792C112.189 27.792 117.454 29.801 121.218 31.5559C124.982 33.3109 139.525 34.8164 139.525 34.8164C139.525 34.8164 133.258 36.5714 128.991 38.077C124.723 39.5825 120.715 50.6156 120.715 50.6156C120.715 50.6156 126.233 45.6001 131 44.3439C135.766 43.0877 142.536 40.8482 142.536 40.8482C142.536 40.8482 138.273 45.6142 137.271 48.8748C136.269 52.1353 137.017 59.6584 137.017 59.6584C137.017 59.6584 139.276 52.634 142.033 49.8769C144.79 47.1198 147.801 42.349 147.801 42.349C149.19 44.6141 150.447 46.958 151.565 49.3688C153.569 53.6361 154.825 59.9031 154.825 59.9031C154.825 59.9031 158.086 52.8834 157.836 49.3688C157.587 45.8542 153.828 39.5919 153.828 39.5919C153.828 39.5919 156.336 37.837 160.095 39.3426C163.854 40.8482 170.38 47.1198 170.38 47.1198C170.38 47.1198 168.874 38.8439 166.366 35.5833C163.859 32.3228 153.075 31.316 153.075 31.316C153.075 31.316 159.093 27.8061 162.857 27.0533C166.621 26.3005 171.636 28.0555 171.636 28.0555C171.636 28.0555 165.863 20.0571 161.351 19.5301C156.839 19.0032 150.059 26.0512 150.059 26.0512C150.059 26.0512 151.565 18.5233 152.068 16.0203C152.572 13.5173 151.565 7.24088 151.565 7.24088C151.565 7.24088 148.808 8.74646 145.547 13.5125C144.591 14.8848 143.92 16.4354 143.575 18.0721C143.229 19.7089 143.217 21.3984 143.538 23.04Z" fill="#D6A72F"/>
<path opacity="0.5" d="M143.538 23.04C143.538 23.04 141.534 18.0246 138.019 14.5006C134.505 10.9766 120.216 8.73234 120.216 8.73234C122.523 10.9598 124.621 13.3946 126.483 16.0062C129.743 20.5182 140.532 30.8031 140.532 30.8031C140.532 30.8031 135.262 26.2864 130.496 25.7877C125.73 25.289 113.695 27.792 112.942 27.792C112.189 27.792 117.454 29.801 121.218 31.5559C124.982 33.3109 139.525 34.8164 139.525 34.8164C139.525 34.8164 133.258 36.5714 128.991 38.077C124.723 39.5825 120.715 50.6156 120.715 50.6156C120.715 50.6156 126.233 45.6001 131 44.3439C135.766 43.0877 142.536 40.8482 142.536 40.8482C142.536 40.8482 138.273 45.6142 137.271 48.8748C136.269 52.1353 137.017 59.6584 137.017 59.6584C137.017 59.6584 139.276 52.634 142.033 49.8769C144.79 47.1198 147.801 42.349 147.801 42.349C149.19 44.6141 150.447 46.958 151.565 49.3688C153.569 53.6361 154.825 59.9031 154.825 59.9031C154.825 59.9031 158.086 52.8834 157.836 49.3688C157.587 45.8542 153.828 39.5919 153.828 39.5919C153.828 39.5919 156.336 37.837 160.095 39.3426C163.854 40.8482 170.38 47.1198 170.38 47.1198C170.38 47.1198 168.874 38.8439 166.366 35.5833C163.859 32.3228 153.075 31.316 153.075 31.316C153.075 31.316 159.093 27.8061 162.857 27.0533C166.621 26.3005 171.636 28.0555 171.636 28.0555C171.636 28.0555 165.863 20.0571 161.351 19.5301C156.839 19.0032 150.059 26.0512 150.059 26.0512C150.059 26.0512 151.565 18.5233 152.068 16.0203C152.572 13.5173 151.565 7.24088 151.565 7.24088C151.565 7.24088 148.808 8.74646 145.547 13.5125C144.591 14.8848 143.92 16.4354 143.575 18.0721C143.229 19.7089 143.217 21.3984 143.538 23.04Z" fill="black"/>
<path d="M148.478 15.4086C148.652 14.6841 148.845 13.9689 149.057 13.2585" stroke="#263238" stroke-width="0.5" stroke-linecap="round" stroke-linejoin="round"/>
<path d="M131.715 15.4039C134.067 17.1212 136.998 19.4784 138.509 21.5203C141.266 25.2843 146.785 33.3109 146.785 33.3109C146.628 27.9216 147.055 22.5313 148.06 17.2341" stroke="#263238" stroke-width="0.5" stroke-linecap="round" stroke-linejoin="round"/>
<path d="M128.242 13.0091C128.242 13.0091 128.972 13.4796 130.068 14.2277" stroke="#263238" stroke-width="0.5" stroke-linecap="round" stroke-linejoin="round"/>
<path d="M146.799 33.3203C146.799 33.3203 156.331 23.7881 160.344 23.0353C164.357 22.2825 167.872 25.2937 167.872 25.2937" stroke="#263238" stroke-width="0.5" stroke-linecap="round" stroke-linejoin="round"/>
<path d="M129.767 41.3186C127.447 42.796 127.236 43.6288 127.236 43.6288" stroke="#263238" stroke-width="0.5" stroke-linecap="round" stroke-linejoin="round"/>
<path d="M167.618 42.1044C167.618 42.1044 166.112 38.3404 160.843 36.5855C155.573 34.8306 147.302 34.5765 147.302 34.5765C147.302 34.5765 135.695 38.3781 131.451 40.3589" stroke="#263238" stroke-width="0.5" stroke-linecap="round" stroke-linejoin="round"/>
<path d="M142.235 33.1462C145.058 33.9602 147.302 34.5577 147.302 34.5577" stroke="#263238" stroke-width="0.5" stroke-linecap="round" stroke-linejoin="round"/>
<path d="M124.568 28.6906C127.292 28.8553 130.802 29.227 132.754 30.0645C134.345 30.7467 137.483 31.7347 140.438 32.6145" stroke="#263238" stroke-width="0.5" stroke-linecap="round" stroke-linejoin="round"/>
<path d="M120.715 28.5589C120.715 28.5589 121.632 28.5589 122.987 28.6107" stroke="#263238" stroke-width="0.5" stroke-linecap="round" stroke-linejoin="round"/>
<path d="M146.799 36.0821C146.799 36.0821 139.779 46.6164 139.271 49.1241C138.969 50.6117 138.801 52.1233 138.767 53.6409" stroke="#263238" stroke-width="0.5" stroke-linecap="round" stroke-linejoin="round"/>
<path d="M149.923 39.399C151.273 41.1446 152.896 43.4688 153.569 45.3649C154.362 47.6481 154.951 49.9973 155.329 52.3846" stroke="#263238" stroke-width="0.5" stroke-linecap="round" stroke-linejoin="round"/>
<path d="M147.801 36.8349C147.801 36.8349 148.361 37.4559 149.137 38.411" stroke="#263238" stroke-width="0.5" stroke-linecap="round" stroke-linejoin="round"/>
<path d="M140.353 25.2043C140.353 25.2043 139.054 19.9583 139.859 15.0558C140.663 10.1532 150.963 7.62939e-06 150.963 7.62939e-06C150.385 3.1554 150.1 6.35734 150.111 9.56512C150.111 15.1358 147.33 29.7963 147.33 29.7963C147.33 29.7963 148.977 23.0541 152.558 19.8689C156.138 16.6837 167.373 11.6776 167.985 11.2071C168.597 10.7366 165.491 15.4698 163.459 19.0926C161.426 22.7154 150.487 32.4169 150.487 32.4169C150.487 32.4169 156.604 30.1868 160.946 28.9212C165.289 27.6556 175 34.2989 175 34.2989C175 34.2989 167.594 33.4426 162.993 35.2023C158.392 36.9619 151.574 39.0791 151.574 39.0791C151.574 39.0791 157.818 40.4671 160.514 42.5278C163.209 44.5886 167.002 51.1425 167.002 51.1425C167.002 51.1425 161.073 46.7528 157.225 46.1224C153.376 45.4919 148.149 43.3747 148.149 43.3747C148.345 46.0256 148.692 48.6631 149.189 51.2743C150.045 55.9086 152.685 61.7333 152.685 61.7333C152.685 61.7333 145.942 57.9317 144.098 54.93C142.254 51.9283 141.652 44.645 141.652 44.645C141.652 44.645 138.589 44.6827 136.41 48.0985C134.232 51.5142 132.595 60.4112 132.595 60.4112C132.595 60.4112 128.986 52.8128 129.122 48.7007C129.259 44.5886 137.436 37.4841 137.436 37.4841C137.436 37.4841 130.496 38.1428 127 39.7237C123.505 41.3045 120.456 45.6613 120.456 45.6613C120.456 45.6613 120.456 35.781 123.834 32.7369C127.212 29.6928 136.81 31.4383 136.81 31.4383L129.329 24.4562C127.447 22.7154 124.624 17.0365 124.624 17.0365C124.624 17.0365 127.739 16.646 133.169 18.6174C134.747 19.1763 136.197 20.0477 137.431 21.1794C138.666 22.3111 139.659 23.68 140.353 25.2043Z" fill="#D6A72F"/>
<path d="M131.889 21.8826C131.324 21.3964 130.75 20.9259 130.167 20.4711" stroke="#263238" stroke-width="0.5" stroke-linecap="round" stroke-linejoin="round"/>
<path d="M145.491 12.1105C144.583 14.8723 143.576 18.4998 143.548 21.0498C143.501 25.7124 143.703 35.4516 143.703 35.4516C140.688 30.981 137.197 26.851 133.291 23.1341" stroke="#263238" stroke-width="0.5" stroke-linecap="round" stroke-linejoin="round"/>
<path d="M146.93 8.13012C146.93 8.13012 146.601 8.93466 146.154 10.1862" stroke="#263238" stroke-width="0.5" stroke-linecap="round" stroke-linejoin="round"/>
<path d="M143.703 35.4563C143.703 35.4563 130.402 33.2732 126.704 34.9858C123.006 36.6984 121.91 41.2057 121.91 41.2057" stroke="#263238" stroke-width="0.5" stroke-linecap="round" stroke-linejoin="round"/>
<path d="M162.189 31.9935C164.936 31.8429 165.59 32.3981 165.59 32.3981" stroke="#263238" stroke-width="0.5" stroke-linecap="round" stroke-linejoin="round"/>
<path d="M131.912 54.7277C131.912 54.7277 130.943 50.7944 134.194 46.2965C137.445 41.7986 144.028 36.769 144.028 36.769C144.028 36.769 155.667 33.085 160.274 32.2193" stroke="#263238" stroke-width="0.5" stroke-linecap="round" stroke-linejoin="round"/>
<path d="M147.307 32.6522C145.505 34.9482 144.013 36.769 144.013 36.769" stroke="#263238" stroke-width="0.5" stroke-linecap="round" stroke-linejoin="round"/>
<path d="M159.06 18.735C156.938 20.457 154.308 22.8048 153.207 24.6256C152.313 26.1076 150.346 28.7424 148.46 31.1795" stroke="#263238" stroke-width="0.5" stroke-linecap="round" stroke-linejoin="round"/>
<path d="M162.109 16.3826C162.109 16.3826 161.365 16.9142 160.297 17.747" stroke="#263238" stroke-width="0.5" stroke-linecap="round" stroke-linejoin="round"/>
<path d="M145.312 37.6959C145.312 37.6959 157.159 42.1561 159.031 43.9017C160.142 44.9348 161.159 46.0636 162.071 47.2751" stroke="#263238" stroke-width="0.5" stroke-linecap="round" stroke-linejoin="round"/>
<path d="M144.71 42.2079C144.63 44.4192 144.667 47.2563 145.223 49.1853C145.912 51.5028 146.806 53.7543 147.895 55.9133" stroke="#263238" stroke-width="0.5" stroke-linecap="round" stroke-linejoin="round"/>
<path d="M144.936 38.8956C144.936 38.8956 144.841 39.719 144.771 40.9517" stroke="#263238" stroke-width="0.5" stroke-linecap="round" stroke-linejoin="round"/>
</svg>
